<?xml version="1.0" encoding="utf-8"?>
<!-- Generator: Adobe Illustrator 24.3.0, SVG Export Plug-In . SVG Version: 6.00 Build 0)  -->
<svg version="1.1" id="Layer_1" xmlns="http://www.w3.org/2000/svg" xmlns:xlink="http://www.w3.org/1999/xlink" x="0px" y="0px"
	 viewBox="0 0 1173.7 399" style="enable-background:new 0 0 1173.7 399;" xml:space="preserve">
<style type="text/css">
	.st0{fill:#FFFEFD;}
	.st1{fill:#FFFFFF;}
	.st2{fill:#1A1A1B;}
	.st3{fill:#373638;}
	.st4{fill:#9D0A0D;}
	.st5{fill:#720006;}
	.st6{fill:#EE1925;stroke:#000000;stroke-width:3;stroke-miterlimit:10;}
	.st7{fill:#575658;stroke:#000000;stroke-miterlimit:10;}
	.st8{fill:#373638;stroke:#000000;stroke-miterlimit:10;}
	.st9{fill:#C6C6C6;}
	.st10{fill:#FFFFFF;stroke:#000000;stroke-miterlimit:10;}
	.st11{fill:none;stroke:#000000;stroke-miterlimit:10;}
	.st12{fill:none;stroke:#000000;stroke-width:2;stroke-miterlimit:10;}
	.st13{fill:#373638;stroke:#373638;stroke-miterlimit:10;}
</style>
<g id="Layer_2_1_">
	<g id="WHITE">
		<path class="st0" d="M178.2,78.7l163.6,307.6h-70.6l-23.7-45.7H108.4l-22.8,45.7h-71L178.2,78.7z M216.5,285.6l-38.4-77.9
			l-37.9,77.9H216.5z"/>
		<path class="st0" d="M312.4,386.4V88.1H445c64.1,0,107.7,42.4,107.7,103.6c0,43.2-23.7,78.7-60.8,94.7c25.7,32.2,53,68.1,77.1,100
			h-77.1c-24.5-30.6-46.9-60.4-71.4-93h-44.1v93L312.4,386.4z M445,237.5c20,0,43.6-14.7,43.6-45.7c0-15.5-5.7-47.7-43.6-47.7h-68.5
			v93.4H445z"/>
		<path class="st0" d="M862.8,220.3c0.4,8.2,0.8,17.5,0.8,24.1c0,5.3-0.4,11-0.8,17.1c-6.5,76.3-75.5,130.6-155.9,130.6
			c-88.5,0-160.8-69.4-160.8-154.6c0-84.9,72.2-154.6,160.8-154.6c54.2,0,104.8,26.9,135,71.8l-55.5,32.2
			c-18.4-25.3-47.3-45.3-79.6-45.3c-53,0-96.7,44.9-96.7,95.9s43.7,96.3,96.8,96.3c38.4,0,77.5-24.9,86.9-56.7H682.5v-56.7H862.8z"
			/>
		<path class="st0" d="M1012.6,82.5c-88.6,0-160.3,69.7-160.3,154.6c0,85.7,71.8,155,160.4,155c89,0,161.2-69.4,161.2-155
			C1173.7,152.2,1101.5,82.5,1012.6,82.5z M1013.9,369.2c-75.2,0-136.2-59.1-136.2-131.9s61-131.9,136.2-131.9
			S1150,164.5,1150,237.3S1089.1,369.2,1013.9,369.2L1013.9,369.2z"/>
		<path class="st1" d="M929.7,65.6l-4.2-4.2c-1.4-1.5-2.9-2.7-4.4-4.1s-3-2.7-4.5-3.9l-4.6-3.8l-4.8-3.6c-1.6-1.2-3.2-2.4-4.8-3.5
			s-3.2-2.3-4.9-3.4l-5-3.3l-5-3.2c-1.7-1.1-3.4-2.1-5.1-3.2l-2.5-1.6l-2.6-1.5c-1.7-1-3.4-2-5.2-3s-3.5-2-5.2-2.9s-3.5-1.9-5.2-2.8
			s-3.5-1.9-5.3-2.8s-3.6-1.8-5.3-2.6l1.7-4.3l12.1,3.5c2,0.6,4,1.2,6,1.9l6,1.9c2,0.6,4,1.3,6,2l6,2.1c1,0.4,2,0.7,3,1l3,1.1
			l5.7,2.3c2,0.7,3.9,1.6,5.8,2.4l5.8,2.4c1.9,0.8,3.8,1.7,5.8,2.6s3.8,1.7,5.8,2.6l5.7,2.8l2.8,1.4l2.8,1.5l5.6,3
			c1.8,1,3.7,2.1,5.5,3.1l2.8,1.6l2.7,1.7c1.8,1.1,3.6,2.2,5.4,3.4l5.3,3.6c0.9,0.6,1.8,1.2,2.6,1.9l2.6,1.9
			c0.8,0.6,1.7,1.3,2.5,1.9l2.5,2l2.5,2c0.8,0.7,1.6,1.4,2.4,2.1c1.6,1.4,3.2,2.8,4.8,4.3s3.1,2.9,4.6,4.5s3,3,4.5,4.7l2.2,2.4
			l2.1,2.5c2.8,3.3,5.4,6.8,7.8,10.4c2.5,3.6,4.6,7.5,6.6,11.4c0.5,1,0.9,2,1.4,3s0.9,2.1,1.2,3.1l0.6,1.6l0.5,1.6
			c0.2,0.6,0.3,1.1,0.5,1.7s0.3,1.1,0.4,2l-5.1-3.9l1-0.1h0.9l1.8-0.1c1.2,0,2.3,0,3.5,0c2.3,0.1,4.6,0.2,6.8,0.4
			c4.5,0.4,9,1.1,13.5,2c13.4,2.8,26.2,8,37.7,15.5c3.8,2.5,7.5,5.2,11,8.1l2.6,2.2c0.4,0.4,0.9,0.8,1.3,1.1l1.2,1.2l2.5,2.4
			l2.3,2.5l1.2,1.2l1.1,1.3l2.2,2.6l4.2,5c1.4,1.7,2.8,3.2,4.2,4.8l2.1,2.4l2.2,2.3l2.2,2.3l2.3,2.3l2.3,2.3l2.3,2.2
			c3.1,3,6.3,5.8,9.5,8.5s6.6,5.3,10.1,7.6c1.7,1.2,3.5,2.4,5.3,3.4s3.6,2.1,5.6,3.4c2,1.2,4,2.4,5.9,3.8c2.1,1.6,4,3.5,5.6,5.6
			c1.6,2.3,2.8,4.9,3.4,7.7c0.3,1.4,0.4,2.7,0.5,4.1c0,0.7,0,1.4-0.1,2s-0.1,1.3-0.2,2c-0.4,2.5-1.1,5-2,7.3c-0.9,2.2-2,4.4-3.1,6.5
			l0.3-3.9l0.2,0.5l0.1,0.4c0.1,0.3,0.2,0.5,0.2,0.8c0.1,0.5,0.2,1.1,0.3,1.6c0.2,1.1,0.3,2.2,0.2,3.3c0,1.8-0.3,3.6-0.8,5.3
			c-0.2,0.6-0.5,1.2-0.8,1.8c-0.3,0.6-0.6,1.1-1,1.7c-0.4,0.5-0.8,1-1.3,1.5l-0.7,0.7l-0.8,0.6c-1,0.7-2,1.4-3.2,1.9
			c-0.5,0.3-1.1,0.4-1.6,0.6s-1.1,0.3-1.6,0.5s-1,0.2-1.6,0.3l3.8-3.8c-0.1,0.4-0.1,0.6-0.2,0.9c-0.1,0.3-0.1,0.5-0.2,0.7
			c-0.1,0.5-0.3,0.9-0.4,1.4s-0.3,0.9-0.4,1.3s-0.3,0.9-0.5,1.3c-0.3,0.8-0.7,1.7-1.1,2.5l-0.6,1.2l-0.6,1.2l-0.6,1.2l-0.7,1.1
			c-0.5,0.8-0.9,1.5-1.4,2.3s-1,1.5-1.5,2.2l-1.6,2.1c-0.6,0.7-1.2,1.3-1.8,2c-0.3,0.3-0.6,0.7-0.9,1l-0.9,0.9
			c-0.6,0.6-1.2,1.3-1.9,1.9l-2,1.7l-1,0.9l-1,0.8l-2.1,1.6c-0.7,0.5-1.4,1-2.2,1.5l-2.2,1.4l-19,12.4l12.7-19.3l0.4-0.6
			c0.2-0.2,0.3-0.5,0.4-0.7c0.3-0.5,0.6-1,0.9-1.4l0.8-1.5c0.3-0.5,0.5-1,0.8-1.5s0.5-1,0.7-1.5l0.7-1.6l0.7-1.6
			c0.2-0.5,0.4-1.1,0.6-1.6s0.4-1.1,0.6-1.6s0.4-1.1,0.5-1.6l0.5-1.6c0.2-0.5,0.3-1.1,0.4-1.6s0.3-1.1,0.4-1.7l0.3-1.7
			c0.2-1.1,0.3-2.2,0.5-3.4l5.6,5.1l-3.1,0.7l3.3-2.9c-0.2,0.5-0.4,1-0.6,1.4l-0.6,1.3c-0.4,0.9-0.8,1.8-1.2,2.6
			c-0.8,1.7-1.8,3.4-2.7,5.1c-0.5,0.8-1,1.7-1.5,2.5s-1,1.6-1.6,2.5s-1.1,1.6-1.6,2.4s-1.1,1.6-1.8,2.4s-1.2,1.5-1.8,2.3
			s-1.3,1.5-2,2.2s-1.4,1.5-2.1,2.2s-1.5,1.4-2.3,2c-0.4,0.3-0.8,0.7-1.2,1s-0.8,0.6-1.2,0.9l-1.3,0.9l-1.4,0.8
			c-0.4,0.3-0.9,0.5-1.4,0.8l-0.7,0.4l-0.8,0.3c-1,0.5-2,0.9-3.1,1.2l-14,5l8.9-12.3l0.2-0.3c0.1-0.1,0.2-0.2,0.3-0.4
			c0.2-0.3,0.4-0.5,0.6-0.8c0.4-0.6,0.7-1.1,1.1-1.7s0.7-1.2,1-1.8l0.9-1.8l0.8-1.9l0.8-1.9c0.2-0.6,0.4-1.3,0.7-1.9s0.4-1.3,0.6-2
			s0.4-1.3,0.5-2l0.5-2l0.3-2c0.1-0.7,0.2-1.3,0.2-2c0-0.7,0.1-1.4,0.2-2v-2c0-0.3,0-0.7,0-1l-0.1-1l-0.1-2l4.6,4.2h-6.3l4.3-2.8
			c-0.2,0.4-0.3,0.6-0.4,0.9s-0.3,0.5-0.4,0.8c-0.3,0.5-0.5,1-0.8,1.4c-0.5,1-1.1,1.8-1.7,2.7s-1.2,1.8-1.8,2.6s-1.3,1.7-2,2.5
			s-1.4,1.6-2.1,2.4s-1.5,1.5-2.2,2.3l-2.3,2.1c-0.8,0.7-1.7,1.3-2.5,2c-0.8,0.7-1.7,1.3-2.6,1.9c-0.9,0.6-1.7,1.2-2.7,1.7l-2.7,1.6
			c-0.9,0.5-1.9,0.9-2.8,1.4c-0.9,0.5-1.9,0.9-2.9,1.3l-3,1.1c-1,0.4-2,0.6-3,1l-3,0.9l3.2-6.3l0.2,0.4c0,0.1,0.1,0.2,0.1,0.3
			l0.2,0.5c0.1,0.4,0.2,0.7,0.3,1c0.2,0.7,0.3,1.3,0.4,2s0.2,1.3,0.3,1.9c0.1,0.6,0.1,1.3,0.2,1.9c0,0.6,0.1,1.3,0.1,1.9l-0.1,1.9
			c0,0.3,0,0.6,0,0.9l-0.1,0.9l-0.2,1.8c-0.2,1.2-0.5,2.4-0.7,3.6c-0.1,0.6-0.3,1.2-0.5,1.8l-0.5,1.8l-0.3,0.9
			c-0.1,0.3-0.2,0.6-0.3,0.9l-0.7,1.7l-0.7,1.7l-0.8,1.6c-0.5,1.1-1,2.1-1.6,3.2l-1.8,3c-0.3,0.5-0.6,1-0.9,1.5l-1,1.4l-2.1,2.8
			c-0.7,0.9-1.5,1.8-2.2,2.7s-1.5,1.8-2.2,2.6l-4.8,4.9l1.1-5.1l0.1,0.4l0.1,0.3l0.2,0.5c0.1,0.4,0.2,0.7,0.3,1
			c0.2,0.7,0.2,1.4,0.4,2s0.2,1.3,0.2,2s0.1,1.3,0.1,2v1c0,0.3,0,0.6,0,1l-0.1,1.9c0,0.6-0.2,1.3-0.2,1.9l-0.3,1.9l-3.4-5.5
			c0.6,0.1,1.3,0.3,1.9,0.4s1.3,0.3,2,0.4c1.3,0.2,2.7,0.5,4.1,0.7c0.7,0.1,1.3,0.2,2,0.3s1.3,0.2,2,0.2l2,0.2l2,0.1
			c0.7,0.1,1.3,0.1,2,0.1h1h1c0.7,0,1.3,0,2,0l2-0.1c0.7,0,1.3-0.1,1.9-0.2l1-0.1l0.9-0.2l0.9-0.2l0.5-0.1l0.4-0.1l1.8-0.5l12.9-3.4
			l-7.7,10.5c-0.2,0.3-0.4,0.5-0.5,0.7s-0.3,0.4-0.5,0.5c-0.3,0.4-0.6,0.7-0.9,1c-0.6,0.7-1.2,1.3-1.9,1.9s-1.3,1.2-1.9,1.7
			s-1.3,1.1-2,1.6s-1.4,1-2.1,1.5s-1.4,1-2.2,1.4s-1.4,0.9-2.2,1.3l-2.3,1.2c-0.8,0.4-1.5,0.7-2.3,1.1l-1.2,0.5l-1.2,0.5l-2.4,0.9
			l-2.4,0.7l-1.2,0.4c-0.4,0.1-0.8,0.2-1.2,0.3l-2.5,0.6c-0.8,0.2-1.7,0.3-2.5,0.4l-2.5,0.4l4-4.1c0,0.3-0.1,0.5-0.1,0.7l-0.1,0.6
			l-0.2,1.2c-0.2,0.8-0.4,1.5-0.6,2.3c-0.4,1.5-1,3-1.6,4.5c-1.3,3-3.1,5.8-5.3,8.2c-1.2,1.2-2.5,2.4-3.9,3.3c-1.4,1-3,1.8-4.7,2.4
			c-3.2,1.2-6.5,1.7-9.9,1.5l-1.2-0.1c-0.4,0-0.8-0.1-1.2-0.1c-0.8-0.1-1.6-0.2-2.3-0.4l-1.2-0.2l-0.3-0.1h-0.1h-0.2h-0.1l-0.5-0.1
			l-2-0.5l-2-0.5l-2.1-0.6c-1.4-0.4-2.8-0.8-4.2-1.4s-2.7-0.9-4.1-1.5l-4-1.7c-2.6-1.2-5.2-2.5-7.7-3.9s-4.9-2.9-7.4-4.4
			c-1.2-0.8-2.3-1.6-3.5-2.4s-2.3-1.6-3.5-2.5l-3.4-2.6l-0.8-0.6l-0.8-0.7l-1.6-1.4l-3.2-2.8l-3.1-2.9c-1-1-2.1-1.9-3.1-2.9l-3-3
			c-1-1-2-2-3-3l-2.9-3c-1-1-1.9-2-2.9-3.1l-2.8-3.1l-2.8-3.1c-0.9-1-1.8-2.1-2.7-3.2l-2.7-3.2l-1.3-1.6l-1.3-1.6l-5.2-6.5l-2.6-3.1
			c-0.4-0.5-0.9-1.1-1.3-1.6l-1.3-1.5c-0.9-1-1.7-2-2.6-2.9l-2.8-2.9c-3.8-3.8-7.7-7.4-11.8-10.9s-8.4-6.7-12.8-9.7
			c-8.9-6.1-18.3-11.5-28-16.1c-4.9-2.3-9.8-4.5-14.8-6.4c-2.5-1-5-1.9-7.6-2.8c-1.3-0.4-2.5-0.8-3.8-1.2l-1.9-0.6
			c-0.6-0.2-1.3-0.4-1.8-0.5l-10.2-2.7l9-5.8l0.7-0.5l0.8-0.5c0.5-0.4,1.1-0.7,1.6-1.1c1.1-0.8,2.1-1.5,3.2-2.3
			c2.1-1.6,4.1-3.3,6.1-5s3.9-3.6,5.7-5.4c0.9-0.9,1.8-1.9,2.7-2.9s1.8-1.9,2.6-3l1.2-1.5l1.2-1.5c0.8-1,1.5-2.1,2.3-3.1
			s1.4-2.1,2.1-3.2s1.4-2.2,2-3.3l0.9-1.7c0.3-0.6,0.6-1.1,0.8-1.7s0.6-1.1,0.8-1.7l0.8-1.8l0.4-0.9l0.3-0.9l0.7-1.8
			c0.4-1.2,0.8-2.4,1.1-3.6l0.5-1.8c0.2-0.6,0.3-1.2,0.4-1.9c0.2-1.2,0.5-2.5,0.6-3.7l0.2-1.9c0.1-0.6,0.1-1.3,0.1-1.9l0.1-1.9v-1.9
			v-2l-0.1-2.1l-0.2-4.1v-1v-3.2c0-1.4,0-2.9,0-4.3l0.2-4.2c0-1.4,0.2-2.9,0.3-4.3c0.1-0.7,0.1-1.4,0.2-2.1l0.3-2.1l0.3-2.2l0.4-2.2
			c0.6-3,1.4-5.9,2.5-8.8c0.6-1.6,1.4-3.1,2.3-4.5c0.2-0.4,0.5-0.8,0.8-1.1c0.3-0.4,0.6-0.7,1-1.1s0.7-0.7,1.2-1.1
			c0.2-0.2,0.5-0.4,0.8-0.6l0.5-0.3l0.3-0.1c0.2-0.1,0.4-0.2,0.6-0.2l4.3-1.7l1.8,4.6l0.2,0.4l0.2,0.6c0.2,0.4,0.4,0.8,0.5,1.2
			c0.4,0.8,0.8,1.6,1.2,2.4c0.2,0.4,0.5,0.8,0.7,1.2l0.7,1.2c0.5,0.8,1,1.5,1.6,2.3s1.1,1.5,1.7,2.2s1.2,1.4,1.8,2.1l0.9,1.1l1,1
			c0.7,0.7,1.3,1.4,2,2l2,2c0.7,0.6,1.4,1.2,2.1,1.9s1.4,1.3,2.2,1.8l2.2,1.8c0.7,0.6,1.5,1.1,2.3,1.7l2.3,1.6
			c0.8,0.5,1.6,1,2.4,1.6l2.4,1.5l29.5,18.7L929,179.1l-0.6-0.2l-0.5-0.2l-0.9-0.4c-0.6-0.2-1.1-0.5-1.7-0.8
			c-1.1-0.5-2.1-1.1-3.1-1.7c-2-1.2-3.8-2.5-5.6-4c-3.5-2.9-6.6-6.3-9.3-9.9c-2.7-3.6-5-7.5-7-11.5c-1.9-4-3.6-8.1-4.9-12.3l-1-3.1
			l-0.8-3.2l-0.4-1.6c-0.1-0.5-0.2-1.1-0.3-1.6l-0.7-3.2c-0.4-2.1-0.8-4.3-1.1-6.4s-0.6-4.3-0.8-6.4l-0.3-3.2
			c-0.1-1.1-0.2-2.2-0.2-3.2c-0.1-2.1-0.2-4.3-0.3-6.4s-0.1-4.3,0-6.4l0.2-6.4c0.1-2.1,0.2-4.2,0.4-6.4l0.1-1.6v-0.1
			c0-0.3,0,0.4,0,0.3v-1.3c0-0.1-0.1-0.1-0.1-0.2c0,0,0-0.1,0-0.1c0-0.1,0-0.1-0.1-0.2l-0.1-0.5l-0.1-0.2l-0.1-0.3
			c-0.6-1.6-1.4-3.1-2.5-4.4c-1.1-1.6-2.3-3.1-3.6-4.5c-2.7-3-5.5-5.8-8.5-8.4c-3-2.7-6.2-5.3-9.4-7.9s-6.5-5-9.8-7.5l-9.9-7.5
			c-6.6-5-13.3-9.9-20.1-14.8L809.2,9.1l20.1,4.8c2,0.5,3.9,1,5.8,1.5s3.8,1.1,5.6,1.7c3.7,1.1,7.4,2.4,11.1,3.6
			c7.3,2.6,14.6,5.4,21.8,8.5c7.1,3.1,14.2,6.5,21,10.2c6.9,3.7,13.5,7.8,20,12.2c3.2,2.2,6.4,4.5,9.4,6.9c3.1,2.4,6.1,4.9,9,7.5
			c2.9,2.6,5.7,5.3,8.4,8.1c2.7,2.8,5.2,5.7,7.6,8.8c2.4,3,4.7,6.2,6.7,9.5c2.1,3.3,4,6.7,5.7,10.1c1.7,3.5,3.2,7.1,4.5,10.7
			c1.2,3.7,2.3,7.4,3.1,11.2c-1-3.7-2.2-7.4-3.7-11c-2.9-7.1-6.6-13.8-11.1-20c-2.2-3.1-4.6-6.1-7.1-9c-10.1-11.5-22.2-21-35.1-29.1
			c-6.5-4-13.1-7.7-20-11c-6.8-3.3-13.8-6.4-20.9-9.2s-14.3-5.3-21.6-7.5c-3.6-1.1-7.3-2.1-11-3.1c-1.8-0.5-3.7-0.9-5.5-1.4
			c-1.8-0.4-3.7-0.9-5.5-1.2l3.2-7.4c7,4.6,13.9,9.3,20.8,14.1c3.5,2.4,6.9,4.8,10.2,7.4s6.7,5.2,10,7.8s6.5,5.4,9.7,8.3
			c3.3,2.9,6.3,6,9.2,9.2c1.5,1.7,2.9,3.5,4.3,5.3c1.5,2,2.6,4.2,3.5,6.5l0.2,0.5l0.2,0.5l0.3,1c0,0.2,0.1,0.3,0.1,0.6l0.1,0.7
			c0.1,0.4,0.1,0.9,0.2,1.3v0.2v1.3v0.6l-0.1,1.5c-0.1,2-0.2,4.1-0.3,6.1l-0.1,6.1c0,2,0,4.1,0,6.1s0.2,4.1,0.2,6.1c0,1,0.1,2,0.2,3
			l0.3,3c0.2,2,0.5,4,0.7,6s0.6,4,1,6l0.6,2.9c0.1,0.5,0.2,1,0.3,1.5l0.4,1.4l0.8,2.9l0.9,2.9c1.2,3.8,2.6,7.5,4.4,11
			c1.7,3.5,3.7,6.9,6,10c2.3,3.1,4.9,5.9,7.8,8.3c1.4,1.2,2.9,2.3,4.5,3.3c0.8,0.5,1.6,0.9,2.4,1.3c0.4,0.2,0.8,0.4,1.2,0.5l0.6,0.2
			l0.4,0.1l-3.7,8.5l-2.6-1.7c-0.9-0.6-1.8-1.1-2.6-1.7l-2.6-1.8c-0.8-0.6-1.7-1.2-2.5-1.9l-2.5-2c-0.8-0.6-1.6-1.3-2.4-2
			s-1.6-1.4-2.4-2.1l-2.3-2.2c-0.8-0.7-1.5-1.5-2.2-2.3l-1.1-1.2l-1-1.2c-0.7-0.8-1.4-1.6-2-2.5s-1.3-1.7-1.9-2.6s-1.3-1.7-1.8-2.7
			l-0.9-1.4c-0.3-0.5-0.5-0.9-0.8-1.4c-0.6-0.9-1.1-1.9-1.6-2.9c-0.2-0.5-0.5-1-0.7-1.6c-0.1-0.3-0.2-0.5-0.3-0.8l-0.2-0.4l-0.1-0.2
			l-0.1-0.3l6.1,2.9l0.3-0.1h0l0.1-0.1l-0.1,0.1c-0.1,0-0.2,0.2-0.3,0.3l-0.4,0.4c-0.1,0.2-0.3,0.4-0.4,0.6
			c-0.6,0.9-1.1,1.8-1.5,2.8c-0.9,2.3-1.6,4.6-2,7l-0.4,1.9l-0.3,1.9l-0.3,1.9c-0.1,0.6-0.1,1.3-0.2,1.9c-0.1,1.3-0.3,2.6-0.3,3.9
			l-0.2,4c-0.1,1.3,0,2.6,0,3.9v3v1l0.2,4.1l0.1,2.1l0,2.1v2.2l-0.1,2.2c0,0.7,0,1.5-0.1,2.2l-0.2,2.2c-0.1,1.5-0.5,2.9-0.7,4.4
			c-0.1,0.7-0.3,1.4-0.5,2.2l-0.5,2.1c-0.4,1.4-0.8,2.8-1.3,4.2l-0.8,2.1l-0.4,1l-0.4,1l-0.9,2c-0.3,0.7-0.6,1.3-0.9,2s-0.6,1.3-1,2
			l-1,1.9c-0.7,1.3-1.5,2.5-2.2,3.8s-1.6,2.4-2.4,3.6s-1.7,2.4-2.5,3.5l-1.3,1.7l-1.3,1.6c-0.9,1.1-1.9,2.2-2.8,3.2
			s-1.9,2.1-2.9,3.1c-2,2-4.1,4-6.2,5.9s-4.3,3.7-6.6,5.4c-1.1,0.9-2.3,1.7-3.5,2.6l-1.8,1.2l-0.9,0.6l-1,0.6l-1.3-8.5
			c0.8,0.2,1.4,0.4,2.1,0.6l2,0.6c1.4,0.4,2.7,0.9,4,1.3c2.7,0.9,5.3,1.9,8,2.9c5.2,2,10.4,4.2,15.5,6.7c10.2,4.8,20,10.5,29.2,16.8
			c4.6,3.2,9.2,6.6,13.5,10.2s8.5,7.5,12.5,11.5l2.9,3.1c1,1,1.9,2.1,2.9,3.2l1.4,1.6c0.5,0.5,0.9,1.1,1.3,1.6l2.7,3.3l5.1,6.4
			l1.3,1.6l1.3,1.6l2.6,3.1c0.9,1,1.8,2.1,2.7,3.1l2.7,3l2.7,3c0.9,1,1.9,2,2.8,3l2.8,2.9c0.9,1,1.9,1.9,2.9,2.9l2.9,2.8
			c1,1,2,1.8,3,2.8l3,2.7l3.1,2.6l1.5,1.3l0.8,0.6l0.8,0.6l3.2,2.4c1,0.8,2.1,1.6,3.2,2.3s2.2,1.5,3.3,2.3c2.2,1.4,4.5,2.9,6.8,4.1
			s4.7,2.4,7,3.6l3.6,1.5c1.2,0.5,2.5,0.9,3.7,1.4s2.5,0.8,3.7,1.2l1.8,0.6l2,0.5l2,0.5l0.5,0.1h0.1l0,0l0.2,0l0.9,0.2
			c0.6,0.1,1.2,0.2,1.7,0.3c0.3,0,0.6,0.1,0.9,0.1h0.8c4.2,0.4,8.4-1.2,11.3-4.2c1.5-1.6,2.7-3.5,3.6-5.6c0.5-1.1,0.9-2.2,1.2-3.3
			c0.2-0.6,0.3-1.1,0.4-1.7c0.1-0.3,0.1-0.6,0.2-0.8l0.1-0.4v-0.3l0.5-3.5l3.5-0.6l2.1-0.3c0.7-0.1,1.4-0.2,2.1-0.4l2.1-0.5
			c0.3-0.1,0.7-0.1,1-0.2l1-0.3l2-0.6l2-0.8l1-0.4l1-0.4c0.7-0.3,1.3-0.6,1.9-0.9l1.9-1c0.6-0.3,1.2-0.7,1.8-1.1s1.2-0.8,1.8-1.2
			s1.2-0.8,1.7-1.2s1.1-0.9,1.6-1.3s1-0.9,1.6-1.4s1-1,1.4-1.5c0.2-0.2,0.5-0.5,0.7-0.7s0.2-0.2,0.3-0.4l0.2-0.2l5.2,7.2l-2.4,0.6
			l-0.6,0.1l-0.6,0.1l-1.2,0.2l-1.2,0.2l-1.2,0.1c-0.8,0.1-1.6,0.2-2.3,0.2l-2.3,0.1c-0.8,0-1.5,0-2.3,0h-1.1h-1.1
			c-0.8,0-1.5,0-2.3-0.1l-2.2-0.1l-2.2-0.2c-0.8-0.1-1.5-0.2-2.2-0.3s-1.5-0.2-2.2-0.3c-1.5-0.2-2.9-0.5-4.4-0.7
			c-0.7-0.1-1.5-0.3-2.2-0.4s-1.4-0.3-2.3-0.5l-4-1l0.6-4.4l0.2-1.5c0.1-0.5,0.2-1,0.2-1.5l0.1-1.5c0-0.2,0-0.5,0-0.7V338v-0.7
			c0-0.2,0-0.5-0.1-0.7c-0.1-0.5-0.1-1-0.2-1.4l-0.1-0.7c0-0.2-0.1-0.4-0.1-0.6c0-0.2-0.1-0.4-0.1-0.6l-0.1-0.3v-0.1l0,0l1.1-5.1
			l4.4-4.5c0.7-0.8,1.3-1.6,2-2.4s1.4-1.6,2-2.4l1.8-2.5l0.9-1.2c0.3-0.4,0.5-0.9,0.8-1.3l1.6-2.6c0.5-0.9,0.9-1.8,1.3-2.7l0.7-1.3
			l0.5-1.4l0.5-1.4c0.1-0.2,0.2-0.5,0.3-0.7l0.2-0.7l0.4-1.4c0.2-0.5,0.3-0.9,0.4-1.4c0.2-1,0.4-1.9,0.5-2.8l0.2-1.4l0.1-0.7
			c0-0.2,0-0.5,0-0.7V293c0-0.5,0-0.9,0-1.4c0-0.5,0-0.9-0.1-1.4c-0.1-0.4-0.1-0.9-0.2-1.3s-0.2-0.9-0.3-1.3c0-0.2-0.1-0.4-0.2-0.6
			l-0.1-0.2v-0.1l0,0l3.2-6.2l2.6-0.8c0.9-0.2,1.7-0.5,2.6-0.8l2.5-1c0.8-0.3,1.6-0.7,2.4-1.1c0.8-0.4,1.6-0.7,2.4-1.2l2.3-1.3
			c0.8-0.4,1.5-1,2.2-1.5s1.5-1,2.2-1.6s1.4-1.1,2.1-1.7l2-1.8c0.6-0.6,1.2-1.3,1.9-1.9s1.2-1.3,1.8-2s1.1-1.4,1.7-2.1
			s1-1.4,1.5-2.2s1-1.5,1.4-2.2c0.2-0.4,0.4-0.8,0.6-1.1c0.1-0.2,0.2-0.4,0.3-0.5l0.2-0.4l1.4-2.8h13.6l0.3,4.2l0.2,2.5l0,1.3
			c0,0.4,0,0.8,0,1.2v2.5c0,0.8-0.1,1.6-0.2,2.5s-0.1,1.6-0.3,2.5l-0.4,2.5l-0.5,2.4c-0.2,0.8-0.4,1.6-0.6,2.4s-0.4,1.6-0.7,2.3
			s-0.5,1.5-0.8,2.3l-0.9,2.3l-1,2.2c-0.4,0.7-0.7,1.5-1.1,2.2s-0.8,1.4-1.2,2.1s-0.8,1.4-1.3,2.1c-0.2,0.4-0.5,0.7-0.7,1l-0.4,0.5
			l-0.4,0.6l-5.1-7.3c0.7-0.3,1.4-0.5,2-0.8l0.5-0.2l0.5-0.3c0.3-0.2,0.7-0.3,1-0.6l1-0.6l1-0.7c0.3-0.2,0.6-0.5,1-0.7
			s0.6-0.5,0.9-0.8c0.6-0.5,1.2-1.1,1.8-1.6s1.2-1.2,1.7-1.8s1.1-1.3,1.7-1.9s1.1-1.3,1.6-2s1-1.4,1.5-2.1s1-1.4,1.4-2.1
			s0.9-1.5,1.4-2.2s0.9-1.5,1.3-2.3c0.9-1.5,1.7-3.1,2.4-4.6c0.4-0.8,0.8-1.6,1.1-2.4l0.5-1.2l0.5-1.1l1-2.3l2.4-0.5l3.1-0.7
			l6.5-1.4l-0.9,6.5c-0.2,1.3-0.3,2.6-0.6,4l-0.4,2c-0.1,0.6-0.3,1.3-0.4,1.9s-0.3,1.3-0.5,1.9l-0.5,1.9c-0.2,0.6-0.4,1.3-0.6,1.9
			s-0.4,1.2-0.7,1.9s-0.4,1.2-0.7,1.9l-0.8,1.8l-0.8,1.8c-0.3,0.6-0.6,1.2-0.9,1.8s-0.6,1.2-0.9,1.8s-0.6,1.2-1,1.7s-0.7,1.1-1,1.7
			c-0.2,0.3-0.4,0.6-0.6,0.9l-0.3,0.4l-0.3,0.5l-6.2-6.7l1.9-1.2c0.6-0.4,1.3-0.8,1.9-1.3l1.8-1.4l0.9-0.7l0.8-0.7l1.7-1.5
			c0.5-0.5,1.1-1,1.6-1.6l0.8-0.8c0.3-0.3,0.5-0.6,0.7-0.8c0.5-0.6,1-1.1,1.5-1.7l1.4-1.8c0.5-0.6,0.8-1.2,1.3-1.8s0.8-1.2,1.2-1.9
			l0.6-1l0.5-1l0.5-1l0.5-1c0.3-0.7,0.6-1.3,0.8-2c0.1-0.3,0.2-0.7,0.4-1s0.2-0.7,0.3-1s0.2-0.7,0.3-1c0-0.2,0.1-0.3,0.1-0.5
			l0.1-0.3l0.7-3.2l3.1-0.6l0.9-0.2c0.3-0.1,0.6-0.1,0.9-0.2c0.3-0.1,0.5-0.2,0.8-0.3c0.2-0.1,0.5-0.2,0.7-0.3
			c0.2-0.1,0.4-0.2,0.6-0.4l0.2-0.2c0.1-0.1,0.1-0.1,0.2-0.2c0.1-0.1,0.3-0.3,0.4-0.4c0.1-0.2,0.2-0.3,0.3-0.5
			c0.1-0.2,0.2-0.4,0.2-0.6s0.1-0.4,0.2-0.7c0.1-0.5,0.2-1.1,0.2-1.6c0-0.6,0-1.2-0.1-1.8c0-0.3-0.1-0.6-0.2-0.9l-0.1-0.4l-0.1-0.3
			l-0.6-2.1l1-1.7c1-1.7,1.8-3.5,2.6-5.3c0.7-1.7,1.2-3.5,1.5-5.3c0.1-0.4,0.1-0.9,0.1-1.3s0-0.8,0-1.2c0-0.8-0.2-1.5-0.3-2.3
			c-0.3-1.5-0.9-3-1.8-4.2c-1-1.4-2.2-2.6-3.6-3.6c-1.6-1.2-3.3-2.3-5.1-3.3c-1.7-1-3.7-2.2-5.6-3.4s-3.8-2.4-5.7-3.7
			c-3.7-2.6-7.3-5.3-10.8-8.1s-6.8-5.8-10-8.9l-2.4-2.3l-2.3-2.4l-2.3-2.4l-2.3-2.4l-2.3-2.4l-2.2-2.5c-1.5-1.7-3-3.3-4.4-5l-4.3-5
			l-2.1-2.4l-1-1.2l-1.1-1.1l-2.2-2.3l-2.3-2.2l-1.1-1.1c-0.4-0.4-0.8-0.7-1.2-1l-2.3-2.1c-3.2-2.7-6.6-5.1-10.1-7.4
			c-10.5-6.9-22.2-11.7-34.5-14.3c-4.1-0.9-8.2-1.5-12.4-1.8c-2.1-0.2-4.2-0.3-6.2-0.3c-1,0-2.1,0-3.1,0l-1.5,0.1h-0.7h-0.7
			l-4.3,0.3l-0.7-4.2c0-0.2-0.2-0.7-0.2-1.1s-0.2-0.9-0.4-1.3l-0.4-1.3l-0.5-1.3c-0.3-0.9-0.7-1.8-1.1-2.7s-0.8-1.8-1.2-2.7
			c-1.7-3.6-3.7-7-5.9-10.3c-2.2-3.3-4.6-6.5-7.2-9.6l-1.9-2.3l-2-2.2c-1.3-1.5-2.8-3-4.2-4.4s-2.9-2.8-4.4-4.2s-3-2.7-4.6-4
			c-0.8-0.7-1.5-1.3-2.3-2l-2.4-1.9l-2.4-1.9c-0.8-0.6-1.6-1.2-2.4-1.8c-1.7-1.2-3.2-2.5-4.9-3.7l-5-3.6c-1.7-1.2-3.4-2.3-5.1-3.5
			l-2.5-1.7l-2.6-1.6c-1.7-1.1-3.5-2.2-5.2-3.2l-5.3-3.1l-2.7-1.5l-2.7-1.5l-5.4-2.8c-1.8-1-3.7-1.8-5.5-2.8s-3.7-1.9-5.5-2.7
			l-5.6-2.6c-1.9-0.9-3.7-1.8-5.7-2.5l-5.7-2.5l-2.8-1.2c-1-0.4-1.9-0.8-2.9-1.1l-5.8-2.3c-1.9-0.8-3.8-1.5-5.8-2.2
			c-3.9-1.4-7.8-2.9-11.7-4.2l-11.8-4l1.7-4.3c1.8,1,3.5,1.9,5.3,2.9s3.5,2,5.2,3s3.5,2.1,5.2,3.1s3.4,2.1,5.1,3.2s3.4,2.2,5.1,3.3
			l2.5,1.6l2.5,1.7c1.7,1.1,3.3,2.2,5,3.4l4.9,3.5l4.8,3.6c1.6,1.2,3.2,2.5,4.8,3.7s3.2,2.5,4.7,3.8l4.6,3.9l4.5,4
			c1.5,1.3,2.9,2.8,4.3,4.2s2.9,2.8,4.2,4.3L929.7,65.6z"/>
		<path class="st1" d="M862,10.5c0,0-18.5-5.8-25.1-7c0,0,12.8,8.1,14.6,8.8l1-0.5l-0.5-1.3v-0.2l0.5-0.7l4.6,0.7L862,10.5z"/>
		<path class="st1" d="M836.9,3.5c0,0,33.6,22,77.8,48.5S849.9,4.5,836.9,3.5z"/>
		<path d="M929.7,65.6C902.5,35.2,852,9.9,852,9.9c147.6,44.2,157.9,111.2,157.9,111.2s50.3-5.2,86.8,39
			c28.4,34.3,47.9,43.8,53.2,47.2s20.8,10.7,8.2,32.9c0,0,4.7,13.1-8.6,15.3c0,0-2.9,17.3-23.7,30c5.4-8.3,8.9-17.7,10-27.5
			l-3.1,0.7c0,0-10.6,27.1-27.9,32.6c0,0,11.5-14.7,9.5-34h-6.3c0,0-9.1,21.3-35.7,27.8c0,0,8.5,20.3-18.8,46.3c0,0,2,5.2,0.5,13.5
			c0,0,20.6,5.2,33.9,1c0,0-10,13.8-32.6,16.6c0,0-2.8,25.3-27.1,19.8s-49.2-20.2-85.6-66.6s-95.3-61.5-95.3-61.5
			s44.3-27.1,42.1-68.4s8.4-45.4,8.4-45.4s5.7,18,32.6,34.1c0,0-41.6-12.4-35.4-95.4c1-13.3-32.9-38-66.5-61.3
			c0,0,121.3,26,140.6,106.6"/>
		<path class="st2" d="M1010.4,337c-4.9-1.1-10.4-5-10.4-5c-0.9,9.4,7.5,15.7,7.5,15.7c-19.7-3.8-24.2-16.6-24.2-16.6
			c5.1-53.6,50.2-56.8,50.2-56.8c-16.3-3.5-31.5,3.8-31.5,3.8c9.8-6.1,41-15.5,41-15.5l-19.4,0.4c18.9-9.2,41.4-13.7,41.4-13.7
			l-19.7-6c6-10.9,24.3-12.1,24.3-12.1l9.8-1.1l18.3-7.8c-37.8,0.7-68.9-15-68.9-15c-16-7.8-22.1-8.4-22.1-8.4
			c15.3-9.8,37.8-5.5,37.8-5.5c-5.9-21.4-34.2-33.5-34.2-33.5c58.3,3,91.4,44.4,95.5,48.1c10,9,32.1,19,32.1,19s19.4,10.4,11.7,28.2
			c0,0-14,4.8-45,0.8s-69.3,26.1-69.3,26.1s-21.9,18.4-24.9,26.6c0,0-2.2-9.9,0-16.7C1010.4,291.8,990.7,302.1,1010.4,337z"/>
		<path class="st2" d="M1010.6,337.1l-1.5-0.4c-0.2-0.1-0.5-0.1-0.7-0.2l-0.7-0.3c-0.5-0.2-0.9-0.3-1.3-0.6l-1.3-0.6l-1.3-0.7
			c-0.4-0.2-0.8-0.5-1.3-0.7c-0.8-0.5-1.6-1-2.4-1.6l0.1-0.1v1.1v0.6v0.6l0.1,1.1l0.2,1.1c0.1,0.4,0.2,0.7,0.3,1.1
			c0.1,0.4,0.2,0.7,0.3,1.1l0.4,1c0.2,0.4,0.3,0.7,0.5,1s0.4,0.7,0.5,1s0.4,0.6,0.6,1s0.4,0.6,0.7,0.9s0.5,0.6,0.7,0.9
			c1,1.2,2,2.2,3.2,3.2l0.3,0.3l-0.4-0.1l-1.9-0.4c-0.6-0.1-1.2-0.3-1.9-0.4l-1.8-0.6c-0.6-0.2-1.2-0.4-1.8-0.6l-1.8-0.7
			c-0.6-0.2-1.2-0.5-1.7-0.8s-1.2-0.5-1.7-0.9l-1.6-1c-0.5-0.3-1-0.7-1.6-1.1c-0.5-0.4-1-0.8-1.5-1.2l-0.7-0.6l-0.7-0.7
			c-0.5-0.4-0.9-0.9-1.3-1.4l-0.7-0.7c-0.2-0.2-0.4-0.5-0.6-0.8c-0.4-0.5-0.8-1-1.1-1.5c-0.4-0.5-0.7-1.1-1-1.6
			c-0.3-0.6-0.6-1.1-0.8-1.7v-0.1c0.2-1.7,0.4-3.4,0.6-5.1l0.4-2.5c0.2-0.9,0.3-1.7,0.5-2.5l0.6-2.5c0.1-0.4,0.2-0.8,0.3-1.3
			l0.4-1.2l0.7-2.5c0.3-0.8,0.6-1.6,0.9-2.4c0.5-1.6,1.3-3.2,2-4.8c0.3-0.8,0.8-1.5,1.2-2.3l0.6-1.1c0.2-0.4,0.4-0.8,0.7-1.1
			c0.4-0.7,0.9-1.5,1.3-2.2l1.4-2.1c0.5-0.7,1-1.4,1.5-2.1l0.8-1l0.8-1c1.1-1.3,2.3-2.6,3.5-3.8l1.9-1.8c0.6-0.6,1.3-1.1,2-1.6
			c1.4-1.1,2.8-2.1,4.2-3c0.7-0.5,1.5-0.9,2.2-1.4s1.5-0.9,2.3-1.3c1.5-0.8,3.1-1.5,4.7-2.2c0.8-0.3,1.6-0.6,2.4-1s1.6-0.6,2.5-0.8
			c1.6-0.5,3.3-1,5-1.4c1.7-0.4,3.4-0.7,5.1-0.9v0.5l-2-0.4l-1-0.2l-1-0.1l-2-0.2l-2-0.1h-1h-1c-0.7,0-1.3,0-2,0.1l-2,0.2
			c-0.7,0-1.3,0.1-2,0.2s-1.3,0.2-2,0.3s-1.3,0.2-2,0.4l-2,0.4l-1.9,0.5l-1.9,0.6c-0.6,0.2-1.3,0.4-1.9,0.6
			c-1.3,0.4-2.5,0.9-3.7,1.5l-0.2-0.5c0.8-0.4,1.6-0.9,2.4-1.4s1.6-0.8,2.5-1.2l2.5-1.1l2.5-1.1c0.8-0.4,1.7-0.7,2.5-1
			s1.7-0.7,2.6-1c1.7-0.7,3.4-1.3,5.2-1.9c6.9-2.5,13.8-4.8,20.9-6.9l0.1,0.6l-19.4,0.5h-1.7l1.5-0.7l5-2.2c0.8-0.4,1.7-0.8,2.5-1.1
			l2.6-1l2.6-1c0.8-0.3,1.7-0.7,2.6-1l5.2-1.6c0.9-0.3,1.7-0.6,2.6-0.8l2.6-0.8c0.9-0.3,1.7-0.5,2.6-0.8l2.6-0.7l2.7-0.7l2.7-0.7
			c1.8-0.4,3.5-0.8,5.3-1.2v0.7l-19.7-6l-0.5-0.1l0.2-0.4l0.6-1l0.7-1c0.3-0.3,0.5-0.6,0.8-0.9s0.6-0.6,0.8-0.9
			c1.2-1.1,2.4-2.1,3.8-3c0.7-0.4,1.4-0.8,2.1-1.2c0.7-0.4,1.4-0.7,2.2-1s1.5-0.6,2.2-0.9s1.5-0.5,2.3-0.7c1.5-0.4,3.1-0.8,4.7-1.1
			c0.8-0.1,1.6-0.3,2.3-0.4s1.6-0.2,2.4-0.3l9.4-1.1h-0.1l18.3-7.8l0.2,0.8h-5.9c-1,0-2-0.1-3-0.1l-3-0.2c-2-0.1-4-0.3-5.9-0.5
			c-1-0.1-2-0.2-3-0.3l-2.9-0.4l-2.9-0.4l-2.9-0.5l-2.9-0.5c-1-0.2-1.9-0.4-2.9-0.6l-2.9-0.6c-1-0.2-1.9-0.5-2.9-0.7l-2.9-0.8
			l-2.8-0.8c-1.9-0.5-3.8-1.2-5.7-1.8c-0.9-0.3-1.9-0.6-2.8-1s-1.9-0.6-2.8-1l-2.8-1.1l-2.8-1.1c-1.8-0.8-3.7-1.6-5.4-2.4l-5.3-2.5
			c-1.8-0.8-3.6-1.6-5.4-2.3l-2.8-1.1c-0.9-0.4-1.9-0.6-2.8-1c-1.8-0.6-3.7-1.1-5.6-1.5l-1.5-0.2l1.3-0.7l2.2-1.2
			c0.7-0.4,1.5-0.8,2.2-1.1l1.1-0.5l0.6-0.3l0.6-0.2l2.3-0.8c0.8-0.2,1.6-0.4,2.4-0.6l1.2-0.3l1.2-0.2c0.8-0.1,1.6-0.3,2.4-0.4
			l2.4-0.3c0.8-0.1,1.6-0.1,2.4-0.2s1.6-0.1,2.5-0.1s1.6-0.1,2.4-0.1s1.6,0,2.5,0s1.6,0,2.4,0.1s1.6,0.1,2.4,0.2
			c1.6,0.1,3.2,0.3,4.9,0.6l-0.6,0.7c-0.3-1-0.6-1.9-1-2.9s-0.8-1.9-1.2-2.8s-0.9-1.8-1.5-2.7s-1.1-1.7-1.6-2.6s-1.2-1.6-1.8-2.4
			s-1.3-1.6-2-2.3s-1.4-1.5-2.1-2.2s-1.5-1.4-2.2-2.1c-3.1-2.7-6.3-5.2-9.8-7.4c-1.7-1.1-3.5-2.1-5.2-3.1c-0.9-0.5-1.8-1-2.7-1.4
			s-1.8-0.9-2.8-1.3l-3.2-1.4l3.5,0.3l5.7,0.4c1.9,0.2,3.8,0.4,5.6,0.7c3.7,0.6,7.5,1.2,11.2,2.1l2.8,0.7c0.9,0.2,1.8,0.5,2.7,0.8
			s1.8,0.5,2.7,0.8l2.7,0.9l1.3,0.4l1.3,0.5l2.7,1c1.8,0.7,3.5,1.4,5.3,2.1s3.5,1.5,5.2,2.4c0.8,0.4,1.7,0.8,2.6,1.2l2.5,1.3
			c3.3,1.8,6.6,3.7,9.8,5.8s6.3,4.2,9.3,6.5s5.9,4.7,8.8,7.2s5.6,5.1,8.2,7.8c1.3,1.4,2.6,2.7,3.9,4.1c0.6,0.7,1.3,1.3,2,1.9
			c0.7,0.6,1.4,1.2,2.2,1.8c3,2.3,6.1,4.3,9.3,6.2c3.2,1.9,6.5,3.7,9.8,5.5s6.7,3.4,10.1,5c0.4,0.2,0.9,0.5,1.3,0.7
			c0.4,0.3,0.8,0.5,1.2,0.8c0.8,0.6,1.6,1.1,2.3,1.7c1.5,1.2,3,2.6,4.2,4.1c2.6,2.9,4.3,6.5,5,10.4c0.3,1.9,0.3,3.9,0,5.8
			c-0.3,1.9-0.8,3.8-1.6,5.6l-0.1,0.3l-0.3,0.1c-0.8,0.3-1.6,0.4-2.4,0.6s-1.6,0.3-2.4,0.5l-1.2,0.2l-1.2,0.1l-2.5,0.3l-1.2,0.1
			l-1.2,0.1l-2.5,0.1l-2.5,0.1h-2.5h-5c-1.7,0-3.3-0.1-4.9-0.2l-4.9-0.2l-4.9-0.5l-4.9-0.5l-2.4-0.2c-0.8-0.1-1.6-0.2-2.4-0.2
			s-1.6-0.1-2.4-0.1l-2.4,0.1c-1.6,0.1-3.2,0.2-4.8,0.5c-3.2,0.5-6.4,1.1-9.6,2c-3.2,0.9-6.3,1.9-9.3,3.1c-6.1,2.4-12,5.2-17.7,8.4
			c-5.7,3.2-11.3,6.7-16.6,10.5c-0.7,0.5-1.3,1-2,1.5s-1.2,1-1.9,1.6c-1.2,1.1-2.5,2.1-3.7,3.2c-2.4,2.2-4.8,4.4-7.2,6.7
			s-4.6,4.6-6.8,7.1c-1.1,1.2-2.1,2.5-3.1,3.8c-1,1.3-1.8,2.7-2.5,4.2l-0.4,1l-0.2-1c-0.3-1.4-0.5-2.8-0.7-4.2s-0.2-2.8-0.3-4.2
			c0-0.7,0-1.4,0-2.1c0-0.4,0-0.7,0-1.1l0.1-1.1c0.1-0.7,0.2-1.4,0.3-2.1c0.1-0.4,0.1-0.7,0.2-1l0.3-1l0.4,0.3
			c-0.9,0.5-1.7,1.1-2.4,1.8c-0.8,0.7-1.4,1.5-2.1,2.3c-0.6,0.8-1.2,1.7-1.7,2.6c-0.2,0.4-0.5,0.9-0.7,1.4s-0.4,1-0.6,1.4
			c-0.3,1-0.6,2-0.8,3c-0.2,1-0.3,2-0.4,3l-0.1,1.5v1.5c0,0.5,0.1,1,0.1,1.5s0.1,1,0.1,1.5l0.2,1.5l0.3,1.5c0.2,1,0.5,2,0.7,3
			s0.6,2,0.9,3s0.7,2,1,2.9s0.7,1.9,1.2,2.9s0.8,1.9,1.3,2.8s0.9,1.9,1.4,2.8L1010.6,337.1z M1010.3,336.9l-1.4-2.6
			c-0.5-0.9-0.9-1.9-1.4-2.8s-0.9-1.9-1.3-2.8s-0.8-1.9-1.2-2.9s-0.7-2-1.1-2.9s-0.6-2-0.9-3s-0.5-2-0.7-3l-0.3-1.5l-0.2-1.5
			c-0.1-0.5-0.1-1-0.2-1.6s-0.1-1-0.1-1.6v-1.6l0.1-1.6c0.1-1,0.2-2.1,0.4-3.1c0.2-1,0.5-2,0.8-3c0.2-0.5,0.4-1,0.6-1.5
			s0.4-1,0.7-1.4c0.5-0.9,1-1.8,1.7-2.7c0.6-0.8,1.3-1.6,2.1-2.3c0.8-0.7,1.6-1.4,2.5-1.9l0.5-0.3l-0.2,0.6l-0.3,1
			c-0.1,0.3-0.2,0.7-0.2,1c-0.1,0.7-0.2,1.4-0.3,2.1l-0.1,1c0,0.3,0,0.7,0,1c0,0.7,0,1.4,0,2.1c0,1.4,0.2,2.8,0.3,4.2
			s0.4,2.8,0.7,4.1h-0.6c0.7-1.5,1.5-3,2.5-4.3c1-1.3,2-2.6,3.1-3.9c2.2-2.5,4.5-4.9,6.8-7.2s4.8-4.5,7.2-6.8
			c1.2-1.1,2.4-2.2,3.7-3.3c0.6-0.5,1.2-1.1,1.9-1.6s1.3-1,2-1.5c5.3-3.9,10.9-7.4,16.6-10.7c5.7-3.3,11.7-6.1,17.8-8.5
			c3.1-1.2,6.2-2.2,9.4-3.1c3.2-0.9,6.4-1.6,9.7-2.1c1.6-0.2,3.3-0.4,4.9-0.5l2.5-0.1c0.8,0,1.7,0,2.5,0s1.7,0.1,2.5,0.2l2.5,0.2
			l4.9,0.5l4.9,0.5l4.9,0.2c1.6,0.1,3.3,0.2,4.9,0.2l4.9,0h2.4l2.4-0.2l2.4-0.2l1.2-0.1l1.2-0.1l2.4-0.3l1.2-0.1l1.2-0.2
			c0.8-0.1,1.6-0.3,2.4-0.4s1.6-0.4,2.3-0.6l-0.4,0.4c1.5-3.4,2-7.1,1.5-10.7c-0.7-3.6-2.3-7-4.7-9.8c-1.2-1.4-2.5-2.7-4-3.9
			c-0.7-0.6-1.4-1.1-2.2-1.7c-0.4-0.3-0.8-0.5-1.2-0.8c-0.4-0.2-0.8-0.5-1.2-0.6c-3.4-1.6-6.8-3.3-10.2-5c-3.3-1.8-6.7-3.6-9.9-5.5
			c-3.3-1.9-6.4-4.1-9.4-6.4c-0.8-0.6-1.5-1.2-2.2-1.8c-0.7-0.6-1.4-1.3-2.1-2c-1.3-1.4-2.6-2.7-3.9-4.1c-2.6-2.7-5.3-5.2-8.2-7.8
			c-2.8-2.5-5.7-4.9-8.7-7.1s-6.1-4.4-9.2-6.4s-6.4-3.9-9.7-5.7l-2.5-1.3c-0.8-0.4-1.7-0.8-2.5-1.2c-1.7-0.8-3.4-1.6-5.1-2.4
			s-3.5-1.4-5.2-2.1l-2.7-1l-1.3-0.5l-1.3-0.4l-2.7-0.9c-0.9-0.3-1.8-0.5-2.7-0.8s-1.8-0.5-2.7-0.8l-2.7-0.7
			c-3.6-0.9-7.3-1.5-11-2.1c-1.9-0.3-3.7-0.4-5.6-0.7l-5.6-0.4l0.3-1.2c1,0.4,1.9,0.9,2.8,1.3s1.8,1,2.7,1.4c1.8,1,3.6,2.1,5.3,3.2
			c3.5,2.2,6.8,4.7,9.9,7.5c0.8,0.7,1.5,1.4,2.2,2.1s1.4,1.5,2.2,2.2s1.4,1.6,2,2.4s1.3,1.6,1.9,2.5s1.2,1.7,1.7,2.6s1,1.8,1.5,2.8
			s0.9,1.9,1.2,2.9s0.7,2,1,3l0.3,0.9l-0.9-0.2c-1.6-0.3-3.2-0.5-4.8-0.6c-0.8-0.1-1.6-0.1-2.4-0.2s-1.6-0.1-2.4-0.1s-1.6,0-2.4,0
			s-1.6,0-2.4,0.1s-1.6,0.1-2.4,0.1s-1.6,0.1-2.4,0.2l-2.4,0.3c-0.8,0.1-1.6,0.3-2.4,0.4l-1.2,0.2l-1.2,0.3
			c-0.8,0.2-1.6,0.4-2.3,0.6l-2.3,0.8l-0.6,0.2l-0.5,0.2l-1.1,0.5c-0.7,0.3-1.5,0.7-2.2,1.1l-2.1,1.2l-0.2-0.9
			c2,0.3,3.9,0.8,5.8,1.5c0.9,0.3,1.9,0.6,2.8,1l2.8,1.1c1.8,0.8,3.7,1.6,5.5,2.3l5.4,2.5c1.7,0.9,3.6,1.6,5.4,2.4l2.7,1.1l2.8,1.1
			c0.9,0.4,1.9,0.7,2.8,1s1.8,0.7,2.8,1c1.9,0.6,3.7,1.2,5.6,1.8l2.8,0.8l2.9,0.7c1,0.2,1.9,0.5,2.9,0.7l2.9,0.6
			c1,0.2,1.9,0.4,2.9,0.6l2.9,0.6l2.9,0.5l2.9,0.4l2.9,0.4c1,0.1,2,0.2,2.9,0.3c2,0.2,3.9,0.5,5.9,0.5l2.9,0.2c1,0,2,0.1,3,0.1
			l5.9,0.1h2.1l-1.9,0.8l-18.3,7.8h-0.1h-0.1l-9.4,1.1c-0.8,0.1-1.6,0.1-2.3,0.3s-1.6,0.2-2.3,0.4c-1.6,0.3-3.1,0.6-4.6,1.1
			c-0.8,0.2-1.5,0.4-2.2,0.7s-1.5,0.5-2.2,0.9s-1.4,0.6-2.1,1s-1.4,0.7-2,1.1c-1.3,0.8-2.6,1.8-3.7,2.9c-0.3,0.3-0.5,0.6-0.8,0.8
			s-0.5,0.6-0.7,0.9l-0.7,0.9l-0.6,1l-0.2-0.6l19.7,6l1.4,0.4l-1.4,0.3c-1.8,0.4-3.6,0.8-5.3,1.2l-2.7,0.6l-2.6,0.7l-2.6,0.7
			c-0.9,0.2-1.8,0.5-2.6,0.8l-2.6,0.8c-0.9,0.2-1.7,0.5-2.6,0.8l-5.2,1.7c-0.9,0.3-1.7,0.6-2.6,1l-2.6,1l-2.5,1
			c-0.8,0.3-1.7,0.7-2.5,1.1l-5,2.2l-0.2-0.6l19.4-0.4l2.3,0l-2.2,0.7c-7,2.1-13.9,4.4-20.8,6.9c-1.7,0.6-3.4,1.2-5.2,1.9
			c-0.9,0.3-1.7,0.6-2.6,1s-1.7,0.6-2.5,1l-2.5,1.1l-2.5,1.1c-0.8,0.4-1.6,0.8-2.5,1.2s-1.6,0.9-2.4,1.3l-0.3-0.5
			c1.2-0.6,2.5-1,3.8-1.5l1.9-0.6l1.9-0.6l2-0.5l2-0.4c0.7-0.1,1.3-0.2,2-0.4s1.3-0.2,2-0.3s1.3-0.2,2-0.2l2-0.1c0.7,0,1.3,0,2,0h1
			h1l2,0.1l2,0.2l1,0.1l1,0.2l2,0.4l1.6,0.3l-1.7,0.2c-1.7,0.2-3.4,0.5-5,0.8c-1.7,0.4-3.3,0.8-5,1.4c-0.8,0.2-1.6,0.5-2.4,0.8
			s-1.6,0.6-2.4,0.9c-1.6,0.7-3.1,1.4-4.7,2.2c-0.8,0.4-1.5,0.8-2.2,1.2s-1.5,0.9-2.2,1.4c-1.4,0.9-2.8,1.9-4.2,3
			c-0.7,0.5-1.3,1.1-2,1.6l-1.9,1.7c-1.2,1.2-2.4,2.4-3.5,3.8l-0.8,1l-0.8,1c-0.5,0.7-1.1,1.3-1.5,2.1l-1.4,2
			c-0.5,0.7-0.9,1.5-1.3,2.2c-0.2,0.4-0.4,0.7-0.6,1.1l-0.6,1.1c-0.4,0.8-0.8,1.5-1.2,2.3c-0.7,1.6-1.4,3.1-2,4.8
			c-0.3,0.8-0.6,1.6-0.9,2.4l-0.7,2.5l-0.4,1.2c-0.1,0.4-0.2,0.8-0.3,1.2l-0.6,2.5c-0.2,0.8-0.3,1.7-0.5,2.5l-0.5,2.5
			c-0.2,1.7-0.4,3.4-0.6,5.1V331c0.2,0.6,0.5,1.2,0.8,1.7c0.3,0.5,0.6,1.1,1,1.6s0.7,1,1.1,1.5c0.2,0.2,0.4,0.5,0.6,0.7l0.6,0.7
			c0.4,0.5,0.9,0.9,1.3,1.4c0.2,0.2,0.5,0.4,0.7,0.6l0.7,0.6c0.5,0.4,1,0.8,1.5,1.2c0.5,0.4,1,0.8,1.6,1.1l1.6,1
			c0.5,0.4,1.1,0.6,1.7,0.9s1.1,0.6,1.7,0.8l1.8,0.7c0.6,0.2,1.2,0.4,1.8,0.6l1.8,0.6c0.6,0.2,1.2,0.3,1.8,0.4l1.9,0.4l-0.1,0.2
			c-1.2-1-2.3-2-3.2-3.2c-0.2-0.3-0.5-0.6-0.7-0.9s-0.4-0.6-0.7-0.9s-0.4-0.6-0.6-1c-0.2-0.3-0.4-0.7-0.5-1c-0.2-0.3-0.3-0.7-0.5-1
			l-0.4-1.1c-0.1-0.4-0.3-0.7-0.3-1.1c-0.1-0.4-0.2-0.7-0.3-1.1l-0.2-1.1l-0.1-1.1v-0.6v-0.6V332v-0.1l0.1,0.1
			c0.8,0.5,1.6,1.1,2.4,1.6c0.4,0.2,0.8,0.5,1.2,0.7l1.3,0.7l1.3,0.6c0.4,0.2,0.9,0.4,1.3,0.6l0.7,0.3c0.2,0.1,0.5,0.2,0.7,0.2
			L1010.3,336.9z"/>
		<path class="st3" d="M1101.1,198.7c0.3,0.4,0.5,0.7,0.8,1.1s0.6,0.7,0.8,1c0.6,0.6,1.2,1.3,1.8,1.9l1,0.9l1,0.9
			c0.7,0.6,1.4,1.1,2.1,1.6c1.4,1.1,2.8,2.1,4.3,3.1c1.5,1,2.9,2,4.4,2.9c3,1.9,6,3.7,9.1,5.4c3.1,1.7,6.2,3.4,9.3,4.9l-1.1,0.8
			l-0.1-1c-0.1-0.3-0.1-0.7-0.1-1v-1c0-0.4,0-0.7,0.1-1c0-0.3,0.1-0.7,0.2-1c0.1-0.3,0.1-0.7,0.2-1l0.3-1c0.1-0.3,0.2-0.7,0.4-1
			c0.1-0.3,0.3-0.6,0.4-0.9c0.1-0.3,0.3-0.6,0.5-0.9c0.2-0.3,0.3-0.6,0.5-0.9s0.4-0.6,0.6-0.8c0.4-0.5,0.9-1.1,1.3-1.6
			c0.2-0.2,0.5-0.5,0.7-0.7s0.5-0.5,0.8-0.7l0.1,1.7c-1.3-0.7-2.5-1.5-3.7-2.2c-0.6-0.4-1.2-0.8-1.8-1.2s-1.2-0.8-1.8-1.2
			c-1.2-0.8-2.4-1.6-3.6-2.4s-2.3-1.7-3.5-2.6c-0.6-0.4-1.2-0.9-1.7-1.3s-1.2-0.9-1.7-1.4l-1.7-1.4c-0.6-0.5-1.1-1-1.6-1.4
			s-1.1-1-1.6-1.5s-1-1-1.5-1.5s-1-1.1-1.5-1.6s-0.9-1.1-1.4-1.7l0.2-0.1c0.5,0.5,1.1,1,1.6,1.5s1.1,0.9,1.6,1.4s1.1,0.9,1.7,1.3
			s1.1,0.9,1.7,1.3s1.1,0.9,1.7,1.3l1.7,1.2c1.2,0.8,2.3,1.6,3.5,2.4l1.8,1.2l1.8,1.2l3.6,2.3l3.6,2.3c1.2,0.8,2.4,1.5,3.6,2.3
			l1.2,0.8l-1.2,0.9c-0.2,0.2-0.5,0.4-0.7,0.6s-0.4,0.4-0.7,0.6c-0.4,0.4-0.8,0.9-1.2,1.4c-0.2,0.2-0.4,0.5-0.6,0.7
			s-0.3,0.5-0.5,0.8c-0.2,0.3-0.3,0.5-0.5,0.8c-0.2,0.3-0.3,0.5-0.4,0.8c-0.1,0.3-0.2,0.6-0.3,0.8l-0.3,0.9
			c-0.1,0.3-0.1,0.6-0.2,0.9c-0.1,0.3-0.1,0.6-0.2,0.9c0,0.3-0.1,0.6-0.1,0.9v0.9c0,0.3,0,0.6,0,0.9l0.1,0.9l0.2,1.4l-1.2-0.6
			c-3.1-1.7-6.2-3.4-9.3-5.2s-6.1-3.7-9-5.7c-1.5-1-2.9-2-4.3-3.1c-1.4-1-2.8-2.1-4.2-3.3c-0.7-0.6-1.4-1.1-2-1.7l-1-0.9l-1-0.9
			c-0.6-0.6-1.2-1.3-1.8-2c-0.3-0.3-0.6-0.7-0.8-1.1s-0.5-0.7-0.7-1.1L1101.1,198.7z"/>
		<path class="st4" d="M1107.8,257.2c0,0-8.9,21.4-35.7,27.8c0,0,9,22.4-18.8,46.3c0,0,2.8,8.9,0.5,13.5l-6.8,8.2l-19.5-13.6
			l-8.4-16.8l-2.9-19.6l5.4-8.1C1021.6,294.9,1057.2,254.9,1107.8,257.2z"/>
		<path d="M1108.9,257.2l-0.2,0.4c-0.4,0.9-0.9,1.8-1.4,2.7c-0.5,0.9-1,1.7-1.6,2.5s-1.1,1.6-1.7,2.4s-1.2,1.6-1.9,2.3
			s-1.3,1.5-2,2.2s-1.4,1.4-2.1,2.1l-2.2,2c-0.8,0.6-1.6,1.2-2.3,1.9c-1.6,1.2-3.2,2.3-4.9,3.4l-2.6,1.5c-0.9,0.5-1.8,0.9-2.7,1.3
			c-0.9,0.5-1.8,0.9-2.7,1.2l-2.8,1c-0.9,0.4-1.9,0.6-2.8,0.9l-2.8,0.8l0.6-1.1c0.4,1.1,0.7,2.2,0.9,3.4c0.2,1.1,0.4,2.2,0.4,3.4
			c0.1,1.1,0.1,2.2,0.1,3.4s-0.1,2.2-0.2,3.4c-0.3,2.2-0.7,4.4-1.3,6.6l-0.5,1.6l-0.6,1.6c-0.2,0.5-0.4,1-0.6,1.6s-0.4,1-0.7,1.5
			c-0.5,1-1,2-1.5,3c-0.3,0.5-0.6,1-0.8,1.5s-0.6,1-0.9,1.4c-0.6,0.9-1.2,1.9-1.9,2.8s-1.3,1.8-2.1,2.6s-1.4,1.7-2.2,2.5
			s-1.5,1.6-2.3,2.4l-2.4,2.3l-2.5,2.2l0.2-0.7c0.2,0.6,0.3,1.1,0.5,1.7s0.3,1.1,0.4,1.7c0.2,1.1,0.4,2.3,0.5,3.5
			c0,0.3,0,0.6,0.1,0.9s0,0.6,0,0.9c0,0.6,0,1.2-0.1,1.8c0,0.3-0.1,0.6-0.1,0.9c-0.1,0.3-0.1,0.6-0.2,0.9s-0.2,0.6-0.3,0.9l-0.4,0.9
			l0,0v0.1l-6.8,8.2l-0.3,0.4l-0.4-0.3l-19.5-13.6l-0.1-0.1l-0.1-0.1l-8.4-16.8v-0.1v-0.1l-2.8-19.6v-0.1l0.1-0.1l5.4-8l0,0l0,0
			c1.4-1.5,2.8-2.9,4.3-4.3s3-2.7,4.5-4s3.1-2.6,4.7-3.8s3.2-2.4,4.9-3.6s3.3-2.3,5-3.4c0.8-0.6,1.7-1.1,2.6-1.6s1.7-1,2.6-1.5
			c1.8-1,3.5-2,5.3-2.9l2.7-1.4l2.7-1.3c0.9-0.4,1.8-0.8,2.8-1.2s1.8-0.8,2.8-1.1l2.8-1.1l2.9-1c1-0.4,1.9-0.6,2.9-0.9
			s1.9-0.6,2.9-0.8l2.9-0.8c1-0.2,2-0.4,3-0.6l1.5-0.3l1.5-0.3l3-0.5c2-0.2,4-0.6,6-0.7c1-0.1,2-0.2,3-0.2l3-0.1c0.5,0,1,0,1.5,0
			h1.5l3,0.1L1108.9,257.2z M1106.7,257.2h-1.9h-1.5c-0.5,0-1,0-1.5,0l-3,0.1c-1,0.1-2,0.2-3,0.2c-2,0.1-4,0.5-6,0.7l-3,0.5
			l-1.5,0.3l-1.5,0.3c-1,0.2-2,0.4-3,0.7l-2.9,0.8c-1,0.2-1.9,0.6-2.9,0.9s-1.9,0.6-2.9,0.9l-2.9,1l-2.8,1.1
			c-0.9,0.4-1.9,0.8-2.8,1.2s-1.8,0.8-2.8,1.2l-2.7,1.3l-2.7,1.4c-1.8,1-3.6,1.9-5.3,3c-0.9,0.5-1.7,1-2.6,1.6s-1.7,1.1-2.6,1.6
			c-1.7,1.1-3.4,2.2-5,3.4c-1.6,1.2-3.2,2.4-4.8,3.6s-3.2,2.5-4.7,3.9s-3,2.7-4.5,4s-2.9,2.8-4.2,4.3l0,0l-5.3,8.1l0.1-0.2l2.9,19.6
			v-0.1l8.5,16.8l-0.2-0.2l19.6,13.5l-0.8,0.1l6.7-8.2l-0.1,0.1l0.3-0.7c0.1-0.2,0.1-0.5,0.2-0.8c0.1-0.3,0.1-0.5,0.2-0.8
			c0.1-0.3,0.1-0.5,0.1-0.8c0-0.5,0.1-1.1,0.1-1.7c0-0.3,0-0.5,0-0.8s0-0.6-0.1-0.8c-0.1-1.1-0.3-2.2-0.5-3.3
			c-0.1-0.5-0.2-1.1-0.4-1.6s-0.3-1.1-0.4-1.6l-0.1-0.4l0.3-0.3l2.4-2.2l2.3-2.3c0.7-0.8,1.5-1.6,2.2-2.4s1.4-1.6,2.1-2.5
			s1.4-1.7,2-2.6s1.2-1.8,1.8-2.7c0.3-0.5,0.6-0.9,0.8-1.4s0.6-0.9,0.8-1.4c0.5-1,1-1.9,1.5-2.9c0.2-0.5,0.5-1,0.7-1.5
			c0.2-0.5,0.4-1,0.6-1.5l0.5-1.5l0.5-1.6c0.6-2.1,1-4.2,1.3-6.3c0.1-1.1,0.2-2.1,0.2-3.2s0-2.1-0.1-3.2c-0.1-1.1-0.2-2.1-0.4-3.2
			c-0.2-1-0.5-2-0.8-3l-0.4-1l0.9-0.3l2.8-0.8c0.9-0.3,1.9-0.5,2.8-0.9l2.7-1c0.9-0.3,1.8-0.7,2.6-1.2c0.9-0.4,1.7-0.8,2.6-1.3
			l2.5-1.5c0.8-0.5,1.6-1,2.4-1.6s1.6-1.1,2.3-1.7s1.5-1.2,2.2-1.8l2.1-1.9c0.7-0.7,1.3-1.4,2-2.1s1.3-1.5,1.9-2.2s1.2-1.5,1.8-2.3
			s1.1-1.6,1.7-2.4s1-1.6,1.5-2.5C1106.1,258.5,1106.4,257.9,1106.7,257.2L1106.7,257.2z"/>
		<path class="st5" d="M1098.8,260.1c0,0-4.9,13.7-26.2,23.4c0,0-3.7-13.9-11.3-16.9c0,0,21.8-11.7,38.2-9.3L1098.8,260.1z"/>
		<path class="st5" d="M1029.3,318.6c0,0,0-0.1,0-0.2c0-8.5,3.2-16.6,9-22.7c9.8-10.1-4.2-9.6-6.5-9.9h7l3.7,1.6l0.7,2.8l-0.1,2.7
			l-1.2,2.3l-2.6,3.5l-2.9,3.2l-2.2,4.1c0,0-2.9,6.2-2.6,11.1L1029.3,318.6z"/>
		<path class="st6" d="M1061.1,266.2c0,0,35.2,27.4-7.7,65.1c1.5,4.3,1.7,9,0.5,13.5c0,0-4.7,4.1-11.1,0s-18-27.4-3.9-44.9
			s-7.1-14.4-7.1-14.4S1046,270.5,1061.1,266.2z"/>
		<path class="st4" d="M1039.9,279.3c0,0,16.7,0.6,6.7,17.9s-12.9,24.5,0.1,46.2l-8.5-3.5c0,0-14.9-22,0.8-40.3
			c5.5-6.3,9.3-14.8-5.3-14.9L1039.9,279.3z"/>
		<path class="st7" d="M955,59.8c0,0-19.5-14.6-34.4-20.3c0,0,8.9,7.6,14.3,11.9c0,0-11.9-6.9-14.3-8c0,0,6.2,4.3,11.5,9L914,43.2
			l11,8.2l-11.4-5.4l11.4,9.5L955,59.8z"/>
		<path class="st7" d="M897.2,47.5c0,0-13.4-8.5-24.4-12.5l13.6,9.5L874,40.5l10.6,5.8c0,0-12.6-4.8-17.3-5.8l15.8,8.3l-13.3-4.2
			c0,0,21.3,16,26,27.2L897.2,47.5"/>
		<path class="st8" d="M976.8,122.1l1.2,2L976.8,122.1z"/>
		<path class="st8" d="M972.9,115.7c1.5,2.4,2.7,4.4,3.8,6.2L972.9,115.7z"/>
		<path class="st8" d="M971.2,112.9l1.5,2.6L971.2,112.9z"/>
		<path class="st8" d="M1009.9,121.2c0,0-17.6-69.4-92.2-67c0,0,29.1,18.7,53.3,58.5l-20.9-41.1C950.2,71.6,980.4,74.2,1009.9,121.2
			z"/>
		<path class="st2" d="M975.6,296.3c0,0-21.3,2.3-32.7-7.8c0,0,16,2.1,23.9-4.7c0,0-3.8,2.9-11.2,2.6c0,0,9.4-3.9,13-9.3
			c0,0-10.2,7.1-21.5,6.5c0,0,15.5-7,19.7-15.2c-4.3,3.4-9.4,5.7-14.8,6.7c0,0,9.8-4.1,13.8-21.3c0,0-4,8-15.7,13.6
			c0,0,9.7-8.4,11.7-18c0,0-7.2,2.7-14.5,14.9c0,0,3.9-19.6,19.5-25.6c0,0-11.5-0.1-17.8,7c0,0,3.4-13.6,24.3-21.9
			c0,0-9.4-0.5-16.6,5.5c0,0,8.3-16.3,24.3-17.5c0,0-16.6-2.3-29.1,7.8c0,0,11.8-18.4,48.7-14.4"/>
		<path class="st3" d="M1017.4,209.5c0,0-23.3-10.7-39.4-5c0,0,15.3,6.3,22.4,7.1s-16.8-3.9-31.8,6.6c6.5-1.1,13.2-1.7,19.8-1.7
			c0,0-17,4.1-22.4,15.1c0,0,14.3-5.6,21.5-4.7c0,0-15.6,8.7-17.1,14.7c0,0,10.6-7.5,15.1-7.7c0,0-8.6,5.6-11.6,13.4
			c0,0,5.8-5.3,12.3-4.6c0,0-8.7,3-13.5,17.3c0,0,3.8-3.7,6-4.3c0,0-5.6,7.3-6.8,13.3c0,0,5.2-9.3,14.3-11.5c0,0-13,7.7-16.5,25.8
			c0,0,5-7,6.2-7c0,0-6.2,10.7-5.5,22.5c0,0,1.2-6,4.8-8.6c-2.8,5.6-4,11.8-3.4,18.1c0,0,0.7-5.6,4.2-8.6c0,0-2.1,6.7-1.9,9
			c0,0,1.2-2.2,2.7-2.5c-0.8,3.2-1.1,6.6-0.8,9.9c0,0,0.9-3.7,3-4.7c0,0-2.3,6.2-2,10.6c0,0,2.4-6.9,4.6-7.2
			c-1.4,5.1-1.4,10.5,0.1,15.6c0,0-0.2-45.5,41.9-55.1c-13.2,1.1-26,5.2-37.3,12c0,0,11.2-14.1,40.5-22.1c0,0-10.1,0.1-13.5,1.4
			c0,0,14.5-11.6,40.4-17.4l-11.5-4c0,0,1.2-17,35.2-18.2C1077.2,227,1058,228.7,1017.4,209.5z"/>
		<path class="st3" d="M1036.9,189.9c0,0-14.3-15.9-36.9-21c5.4,2.4,10.5,5.4,15.1,9.1c0,0-22.8-12.5-40.1-10.3
			c0,0,6.8-0.7,26.8,7.5c0,0-27.4-8.6-46.9-0.3c0,0,12.1-2.3,19.1,0c0,0-15.1-2-39.7,12.5c0,0,10.3-4.3,17.1-4.5
			c0,0-28.9,1.9-48,44.1c0,0,44.2-57,107.5-41.4c-6.3,1.6-12.4,4-18.1,7.2c0,0,15.6-5.4,25.3-5.1c-3.1,2-5.9,4.6-8.2,7.5
			C1009.8,195.1,1017.1,188.9,1036.9,189.9z"/>
		<path class="st0" d="M942,224.5c0,0-14.3,10.6-18.3,22c0,0,12.1,8.2,13.5,20.2c0,0-11.6-17.1-23.3-20.1
			C913.9,246.5,922.3,235.6,942,224.5z"/>
		<path class="st0" d="M933.3,274.5c0,0-1.8-16-26.9-27.7c0,0,12.4-22.7,38.1-34.9c0,0-10.1,3.6-19,3.3c1.4,1.2,3.2,2.1,5,2.5
			c0,0-11.5,3.5-16,7.2c2.6,0,5.2-0.2,7.7-0.7c0,0-15.5,5.1-21.4,11.2c0,0,5.2-2.2,7.9-2.2c0,0-18.4,9.6-23,16.8
			c0,0,11.2-1.2,18.6,2.9c-2.1,0.4-4.1,1.2-5.8,2.3c6.4,0.1,12.7,1.8,18.3,5.1c0,0-7-0.3-9.6,1.5c0,0,12.5,1.7,16,4.2
			c0,0-6.2-0.4-8.6,0.4C914.6,266.6,926.8,268,933.3,274.5z"/>
		<path class="st0" d="M911,202.8c0,0-8.5-16.5-6.3-31.3c7,5.2,14.9,9.3,23.2,12.1c-4.2,1.1-8.6,1.2-12.9,0.2c0,0,1.9,3.2,2.3,11.5
			c0,0-3.3-7.1-5.5-8.2C911.9,187.1,913.4,197.5,911,202.8z"/>
		<path class="st7" d="M909.8,51.8c0,0-14.3,18.7-2,64c0,0-16.5-29.9-10.7-71.7C901.4,46.4,905.7,48.9,909.8,51.8z"/>
		<path class="st2" d="M916.4,56.4c0,0-14.1,29.2,7.3,81.8c0,0-8.8-7.6-16.6-23c0,0-7-23.9-4.6-41.9s6.6-21.6,6.6-21.6
			S909.2,50.5,916.4,56.4z"/>
		<path class="st0" d="M1103.2,210.5c0,0-18.6-15.9-20.8-28.6c0,0-2.1,3.3,0,10.3c0,0-5.2-6.9-5.7-12.2c-0.9,2.6-1.1,5.3-0.7,8
			c0,0-6.5-6.7-8-10.4c0.1,3,1,5.9,2.8,8.3c0,0-11.5-9-12.5-12.2"/>
		<path class="st8" d="M897.1,44.3c0,0-6.2,39.7-2.5,70s12.8,44.8,31,58.1c0,0-1.5-11.2,5.5-23.7
			C931.2,148.6,897.7,122.9,897.1,44.3z"/>
		<path class="st7" d="M897.2,44.5c51.6,17,79,77.9,79,77.9l-7.9,2.1C968.3,124.5,946.9,71.5,897.2,44.5z"/>
		<path class="st2" d="M1053.2,369.5c0,0-6,19-28.4,12s-34.2-14.9-57.6-37.2s-36.2-62.4-120.1-90.1c0,0,44-28.2,42.2-67
			s5.6-44.5,8.4-46.6c0,0,10.1,22.1,32.6,34.1c-9.8-0.5-19.4-3-28.2-7.2c0,0-3.3,14,5.1,35.4c0,0-20.2,31.9-41.7,48.5
			c0,0,48.5,6,84.7,55.7S1014.4,371.6,1053.2,369.5z"/>
		<path class="st2" d="M963.7,124.5c0,0-9.1-21.8-22.2-35.3c0,0,5.6,14.7,5.7,21.5s-7.5-6.7-9.3-11.1s4.5,14.9,1.7,20.4
			s-4-12.4-5.5-14.7s-1.1,18.6-2.9,24.9s-10.6-13-10.6-13s0.5,16.2,13.1,27.1C933.6,144.5,941.8,129.2,963.7,124.5z"/>
		<path class="st2" d="M1006.3,121.2c0,0-10.6-18.2-25.1-31c0,0,10.6,14,11.8,18.1s-8.5-11.1-12.6-12.4s6.8,9.8,5.7,14.7
			c0,0-3.3-8.8-9.9-12.7c0,0,4.5,7.2,5.2,14.2s-8-5.7-11.3-9.3s7.8,14.3,7.3,19.7C977.4,122.3,985.8,119.5,1006.3,121.2z"/>
		<path d="M1063.3,184.5L1063.3,184.5h-0.1c-1.7-0.7-3.3-1.4-5.1-2s-3.7-1.2-5.6-1.7v0.1c-6.7-1.6-8-0.1-8-0.1
			c3,0.7,5.9,1.9,8.6,3.4l4.1,21.3l29,5.6c0,0-4.4,2.7-6.2,6.3c0,0,8.6-8.1,18.4-5.9C1089.2,199.8,1077.1,190.5,1063.3,184.5z"/>
		<path class="st0" d="M1093.5,209.6c0,0-27-25.7-37-23.4c0.7,5.2,1.8,10.4,3.3,15.4C1059.8,201.6,1067.2,202.7,1093.5,209.6z"/>
		<path class="st9" d="M1093.5,209.6c0,0-25.8-25.2-37-23.4c0,0,2.1,13,3.3,15.4l0.6-3.2l-2.6-10.9
			C1057.8,187.5,1072.6,189.8,1093.5,209.6z"/>
		<path class="st3" d="M938,177.6c0,0,58.9-63.2,157.3-4.9c10.9,6.4,33,30.9,57.2,38.3l2.2,0.7l3.4,1.5c-2.2-2.2-4.8-4-7.6-5.4
			c-4.8-2.3-23.3-15.1-42.7-34.9s-48.6-43.7-91.4-48.4c0,0,19.3,5.1,31.6,15.1c0,0-60.6-28.2-105,9.8c0,0,25.3-10.9,38.3-6.6
			c0,0-29.9,6.8-43.5,35.4"/>
		<path class="st0" d="M982.4,142.1c-0.9-0.3-1.8-0.5-2.8-0.7c-0.5-0.1-0.9-0.2-1.4-0.2s-0.9-0.2-1.4-0.2s-0.9-0.1-1.4-0.1l-1.4-0.1
			h-1.4c-0.5,0-1,0-1.4,0s-1,0-1.4,0.1s-1,0.1-1.4,0.1l-1.4,0.2c-0.5,0-0.9,0.2-1.4,0.3s-0.9,0.2-1.4,0.3l-1.4,0.3
			c-0.5,0.1-0.9,0.2-1.3,0.4l-1.3,0.4l-4.6,1.4l4.1-2.6c1.8-1.1,3.6-2.1,5.5-3c1.9-0.9,3.8-1.6,5.8-2.4s3.9-1.3,5.9-1.9
			c1-0.3,2-0.5,3-0.8l3-0.7l3.1-0.6l3.1-0.5l3.1-0.4c1-0.1,2.1-0.2,3.1-0.2s2.1-0.1,3.1-0.1l1.6-0.1h1.5c2.1,0,4.2,0.1,6.2,0.2
			c2.1,0.1,4.1,0.3,6.2,0.6s4.1,0.6,6.2,0.9c1,0.2,2,0.4,3,0.6s2,0.4,3,0.7c2,0.5,4,1,6,1.6c1,0.3,2,0.6,3,0.9l2.9,1l1.5,0.5
			l1.4,0.6l2.9,1.1c1.9,0.8,3.8,1.6,5.7,2.4s3.7,1.8,5.6,2.7l-0.9,0.8c-0.1-0.4-0.3-0.9-0.5-1.3c-0.2-0.4-0.4-0.9-0.7-1.3
			s-0.6-0.8-0.8-1.2l-0.9-1.2l-0.9-1.1l-1-1.1c-0.3-0.4-0.7-0.7-1.1-1c-0.4-0.4-0.7-0.7-1.1-1c-0.4-0.3-0.8-0.6-1.2-0.9l-1.2-0.9
			c-0.8-0.6-1.7-1.1-2.5-1.6c-0.4-0.3-0.9-0.5-1.3-0.8l-1.3-0.7l-2.7-1.3l2.8,1.1c0.9,0.4,1.8,0.8,2.7,1.3s1.8,0.9,2.7,1.5l1.3,0.8
			c0.4,0.3,0.8,0.6,1.3,0.9s0.8,0.6,1.2,0.9s0.8,0.6,1.2,1l1.1,1l1.1,1.1c0.3,0.4,0.7,0.8,1,1.2s0.6,0.8,0.9,1.3
			c0.3,0.4,0.5,0.9,0.8,1.4c0.2,0.5,0.4,1,0.6,1.5l0.4,1.4l-1.3-0.6c-1.8-0.9-3.7-1.8-5.5-2.7s-3.8-1.7-5.7-2.4l-2.9-1.1l-1.4-0.6
			l-1.4-0.5l-2.9-1c-1-0.3-2-0.6-2.9-0.9c-2-0.6-4-1.1-5.9-1.6c-1-0.3-2-0.4-3-0.7s-2-0.4-3-0.6c-2-0.3-4-0.7-6.1-0.9
			s-4.1-0.4-6.1-0.6s-4.1-0.2-6.1-0.2h-1.5l-1.5,0.1c-1,0-2,0.1-3.1,0.1s-2,0.1-3.1,0.2l-3,0.3l-3,0.5l-3,0.6l-3,0.7
			c-1,0.3-2,0.5-3,0.8c-2,0.6-3.9,1.1-5.8,1.9s-3.8,1.4-5.7,2.3c-1.9,0.8-3.6,1.8-5.4,2.9l-0.6-1.2l1.4-0.4c0.5-0.1,0.9-0.3,1.4-0.4
			l1.4-0.3c0.5-0.1,1-0.2,1.4-0.2c0.5-0.1,1-0.1,1.5-0.2l1.5-0.1c0.5,0,1,0,1.5,0s1,0,1.5,0l1.4,0.1l1.5,0.1c0.5,0,1,0.1,1.4,0.2
			s1,0.2,1.4,0.2s0.9,0.2,1.4,0.3s0.9,0.2,1.4,0.4C980.6,141.4,981.5,141.7,982.4,142.1z"/>
		<path class="st0" d="M909.7,224.5c1.4-1.7,2.8-3.3,4.3-4.9s3.1-3.1,4.6-4.6c1.6-1.5,3.3-2.9,5-4.2c0.8-0.7,1.7-1.3,2.6-2
			s1.8-1.3,2.6-1.9s1.8-1.3,2.7-1.9s1.8-1.2,2.7-1.8c1.8-1.2,3.7-2.3,5.5-3.4l2.8-1.6l2.9-1.5c1-0.5,2-1,2.9-1.5s2-0.9,3-1.4
			c2-0.9,4-1.7,6-2.5s4.1-1.5,6.2-2.1s4.2-1.2,6.3-1.8s4.2-1,6.4-1.3s4.3-0.6,6.5-0.9c1.1-0.1,2.2-0.1,3.3-0.2l1.6-0.1
			c0.5,0,1.1,0,1.6,0h3.3l3.3,0.2l1.6,0.1l1.6,0.2c1.1,0.1,2.2,0.2,3.2,0.4l4.5,0.7l-4.4,0.6c-0.3,0-0.6,0.1-0.9,0.1
			s-0.6,0.1-0.9,0.2c-0.6,0.1-1.2,0.3-1.7,0.5s-1.1,0.4-1.7,0.6s-1.1,0.4-1.7,0.7c-0.3,0.1-0.5,0.2-0.8,0.4l-0.8,0.4
			c-0.5,0.3-1,0.6-1.6,0.9s-1,0.7-1.5,1s-1,0.8-1.4,1.1c0.4-0.4,0.9-0.9,1.3-1.3s0.9-0.8,1.4-1.2s1-0.7,1.5-1.1l0.8-0.5
			c0.3-0.2,0.5-0.3,0.8-0.5c0.5-0.3,1.1-0.6,1.7-0.9s1.1-0.5,1.7-0.8s1.2-0.4,1.8-0.6c0.3-0.1,0.6-0.2,0.9-0.3s0.6-0.2,0.9-0.2v1.3
			c-1.1-0.1-2.1-0.3-3.2-0.4l-1.6-0.2l-1.6-0.1l-3.2-0.2h-3.2c-0.5,0-1.1,0-1.6,0l-1.6,0.1c-1.1,0.1-2.2,0.1-3.2,0.2
			c-2.1,0.2-4.3,0.4-6.4,0.9s-4.2,0.8-6.3,1.3s-4.2,1-6.2,1.7s-4.1,1.4-6.1,2.1s-4,1.6-6,2.5c-1,0.4-2,0.9-2.9,1.4s-1.9,0.9-2.9,1.4
			l-2.9,1.5l-2.8,1.6c-1.8,1.1-3.7,2.2-5.5,3.4c-0.9,0.6-1.8,1.2-2.7,1.8s-1.8,1.2-2.6,1.9s-1.8,1.3-2.6,1.9s-1.7,1.3-2.6,2
			s-1.7,1.4-2.5,2s-1.7,1.4-2.5,2c-1.7,1.4-3.4,2.7-5,4.2S911.2,222.9,909.7,224.5z"/>
		<path class="st0" d="M956,132c-0.9,0.5-1.7,1-2.6,1.6c-0.8,0.6-1.6,1.2-2.4,1.8s-1.5,1.3-2.2,2c-0.4,0.3-0.7,0.7-1.1,1
			s-0.7,0.7-1.1,1c-0.7,0.7-1.4,1.4-2.1,2.1s-1.3,1.5-1.9,2.3c-0.3,0.4-0.6,0.8-0.9,1.2s-0.6,0.8-0.8,1.2s-0.6,0.8-0.8,1.2l-0.8,1.3
			c-0.5,0.9-1,1.7-1.4,2.6s-0.8,1.8-1.2,2.7s-0.7,1.9-1,2.8s-0.6,1.9-0.9,2.9c-0.1,0.5-0.3,1-0.4,1.4l-0.3,1.5c-0.2,1-0.4,2-0.6,2.9
			s-0.3,2-0.4,3l-0.3,3l-1.8-0.6c0.9-1.3,1.8-2.6,2.8-3.8c0.5-0.6,1-1.2,1.5-1.8s1-1.2,1.5-1.8s1-1.2,1.5-1.8s1-1.2,1.6-1.7
			s1.1-1.1,1.6-1.7l1.7-1.6c0.6-0.5,1.2-1,1.8-1.6l0.9-0.8l0.9-0.7c0.6-0.5,1.2-1,1.9-1.4s1.3-0.8,2-1.2s1.4-0.7,2.1-1
			c0.4-0.2,0.7-0.3,1.1-0.5l1.1-0.4l1.1-0.4c0.2-0.1,0.4-0.1,0.6-0.2l0.6-0.1l2.3-0.5l-2.1,1c-0.7,0.3-1.4,0.7-2,1.1l-1,0.6
			c-0.3,0.2-0.6,0.4-0.9,0.6c-0.6,0.4-1.3,0.9-1.9,1.3c-0.6,0.5-1.2,1-1.8,1.4c-0.6,0.4-1.2,0.9-1.8,1.3l-0.9,0.7l-0.9,0.7
			c-0.6,0.5-1.2,1-1.7,1.5l-1.7,1.6c-0.5,0.5-1.1,1.1-1.6,1.6s-1,1.1-1.6,1.7s-1,1.1-1.5,1.7s-1,1.1-1.5,1.8s-1,1.2-1.4,1.8
			c-0.9,1.2-1.8,2.4-2.7,3.7l-2.2,3.2l0.3-3.8l0.3-3.1c0.1-1,0.2-2.1,0.4-3.1s0.3-2,0.6-3l0.3-1.5c0.1-0.5,0.3-1,0.4-1.5
			c0.2-1,0.6-2,0.9-3s0.7-1.9,1.1-2.9s0.8-1.9,1.3-2.8s1-1.8,1.5-2.7l0.8-1.3c0.3-0.4,0.6-0.9,0.9-1.3s0.6-0.9,0.9-1.3
			s0.6-0.8,0.9-1.2c0.6-0.8,1.3-1.6,2-2.4s1.4-1.5,2.2-2.2c0.4-0.4,0.8-0.7,1.2-1c0.4-0.3,0.8-0.6,1.3-0.9c0.9-0.6,1.7-1.1,2.6-1.6
			C952.1,133.5,954,132.7,956,132z"/>
		<path class="st0" d="M1039.2,189.5c-1-1.2-2.1-2.2-3.2-3.3s-2.2-2.1-3.4-3.1s-2.3-2-3.5-2.9s-2.4-1.8-3.7-2.7s-2.5-1.7-3.8-2.5
			l-2-1.2c-0.7-0.4-1.3-0.8-2-1.1c-1.3-0.8-2.6-1.6-4-2.2s-2.7-1.4-4.1-2l-2.1-0.9c-0.7-0.3-1.4-0.6-2.1-0.9s-1.4-0.6-2.1-0.8
			s-1.4-0.5-2.1-0.7c-1.5-0.4-2.9-0.9-4.3-1.3s-3-0.7-4.4-1c-0.7-0.1-1.5-0.3-2.2-0.4s-1.5-0.3-2.2-0.3l-2.2-0.3
			c-0.8-0.1-1.5-0.1-2.3-0.2c-1.5-0.1-3-0.2-4.5-0.2s-3,0-4.5,0h-4.7l4.2-1.9c2.7-1.2,5.5-2.3,8.4-3.1c2.8-0.9,5.7-1.6,8.6-2.2
			c1.5-0.3,2.9-0.6,4.3-0.8s2.9-0.5,4.4-0.7s2.9-0.3,4.4-0.5s2.9-0.2,4.4-0.4s3-0.1,4.4-0.2s2.9,0,4.4,0c3,0.1,5.9,0.2,8.8,0.4
			c1.5,0.1,2.9,0.3,4.4,0.4l2.2,0.2c0.7,0.1,1.5,0.2,2.2,0.3c1.5,0.2,2.9,0.4,4.4,0.7l4.3,0.9c1.4,0.3,2.9,0.7,4.3,1
			c0.7,0.2,1.4,0.3,2.1,0.5l2.1,0.6c1.4,0.4,2.8,0.8,4.2,1.3l4.2,1.4c0.7,0.2,1.4,0.5,2.1,0.7l2.1,0.8c1.4,0.5,2.8,1,4.1,1.6
			c2.7,1.2,5.4,2.3,8.1,3.6s5.3,2.6,7.8,4.1l1.9,1.1c0.6,0.4,1.2,0.8,1.9,1.2l3.7,2.4c1.2,0.8,2.4,1.7,3.6,2.5l3.6,2.5
			c2.4,1.8,4.6,3.6,7,5.4l-7.4-4.8l-3.8-2.3c-1.3-0.7-2.5-1.5-3.8-2.2l-3.8-2.1c-0.6-0.3-1.3-0.7-1.9-1l-2-1
			c-1.3-0.6-2.6-1.4-3.9-2.1s-2.6-1.3-3.9-1.9c-2.6-1.3-5.3-2.4-8-3.6c-1.3-0.6-2.7-1.1-4.1-1.6l-2-0.8c-0.7-0.3-1.4-0.5-2-0.7
			l-4.1-1.4c-1.4-0.5-2.8-0.8-4.2-1.2l-2.1-0.6c-0.7-0.2-1.4-0.4-2.1-0.5c-1.4-0.3-2.8-0.7-4.2-1l-4.3-0.8c-1.4-0.3-2.9-0.5-4.3-0.7
			c-0.7-0.1-1.4-0.2-2.2-0.3l-2.2-0.2c-1.4-0.2-2.9-0.3-4.3-0.4c-2.9-0.2-5.8-0.4-8.7-0.4c-1.5,0-2.9,0-4.3,0s-2.9,0.1-4.4,0.2
			s-2.9,0.2-4.3,0.4s-2.9,0.3-4.3,0.5s-2.9,0.4-4.3,0.7s-2.8,0.5-4.3,0.8c-2.8,0.6-5.7,1.3-8.4,2.2c-2.8,0.8-5.5,1.8-8.1,3l-0.5-1.9
			c1.5,0,3.1-0.1,4.7,0s3.1,0.1,4.6,0.2c0.8,0.1,1.5,0.1,2.3,0.2l2.3,0.3c0.8,0.1,1.5,0.2,2.3,0.4s1.5,0.2,2.3,0.4
			c1.5,0.3,3,0.6,4.5,1s3,0.8,4.5,1.3c0.7,0.2,1.5,0.5,2.2,0.8s1.5,0.5,2.2,0.8s1.5,0.6,2.2,0.9l2.1,0.9c1.4,0.7,2.8,1.3,4.2,2.1
			s2.7,1.5,4.1,2.3c0.7,0.4,1.3,0.8,2,1.3l1.9,1.3c1.2,0.9,2.5,1.9,3.7,2.8s2.4,2,3.5,3s2.3,2.1,3.4,3.2s2.1,2.2,3.2,3.4
			S1038.3,188.3,1039.2,189.5z"/>
		<path class="st0" d="M1075,223.1c0,0-0.4,0-1.2,0s-1.9,0-3.4,0s-3.2-0.1-5.2-0.3c-1-0.1-2.1-0.2-3.2-0.3s-2.3-0.4-3.5-0.7
			c-2.4-0.5-5-1.1-7.8-1.8c-1.4-0.4-2.8-0.8-4.2-1.2l-4.4-1.4c-1.4-0.5-3-1.1-4.4-1.6s-3-1.2-4.5-1.9s-3-1.4-4.5-2.1s-3-1.4-4.5-2.1
			s-3-1.4-4.5-2l-2.2-1l-2.2-0.9c-3-1.2-6-2.2-8.9-3.1c-2.8-0.8-5.6-1.5-8.5-1.9c-0.7-0.1-1.4-0.2-2-0.3l-2-0.2l-1-0.1H992h-1.8
			c-1.2,0-2.3,0.2-3.4,0.2s-2.1,0.2-3.1,0.3l-2.7,0.5c-0.4,0.1-0.8,0.2-1.2,0.3l-1.1,0.3c-1.1,0.3-2.1,0.7-3.1,1.1l-1.1,0.4l1-0.6
			l1.2-0.7c0.6-0.3,1.1-0.6,1.7-0.9l1-0.5c0.4-0.2,0.8-0.4,1.2-0.5c0.8-0.3,1.7-0.6,2.7-0.9s2.1-0.5,3.2-0.8
			c0.6-0.1,1.2-0.1,1.8-0.2c0.6,0,1.2-0.1,1.8-0.1h1.9h1l1,0.1l2.1,0.2c0.7,0.1,1.4,0.2,2.1,0.3c3,0.5,5.9,1.1,8.8,2
			c3,0.9,6,2,9,3.2l2.3,0.9l2.3,1c1.5,0.6,3,1.3,4.5,2c1.5,0.7,3,1.4,4.5,2.1s3,1.4,4.4,2s3,1.2,4.4,1.8s2.9,1.1,4.4,1.6l4.3,1.4
			c1.4,0.4,2.8,0.8,4.2,1.2c2.7,0.7,5.3,1.3,7.7,1.8c1.2,0.3,2.4,0.4,3.4,0.7s2.1,0.5,3.1,0.7s1.9,0.4,2.7,0.6s1.6,0.3,2.3,0.5
			C1073.3,222.8,1075,223.1,1075,223.1z"/>
		<path class="st0" d="M1094.1,234.8l3.1,1.1l1.5,0.6l1.6,0.5l3.1,1l3.2,0.9c1,0.3,2.1,0.6,3.2,0.9s2.1,0.6,3.2,0.8l3.2,0.7
			c1.1,0.2,2.1,0.4,3.2,0.6s2.1,0.4,3.2,0.6s2.2,0.4,3.2,0.5l3.2,0.5l3.2,0.4l3.3,0.3l3.3,0.3c1.1,0.1,2.2,0.1,3.3,0.2
			s2.2,0.1,3.2,0.1l6.3,0.1l-6,1.8c-1.3,0.4-2.5,0.6-3.7,0.9s-2.5,0.5-3.7,0.7s-2.5,0.4-3.7,0.5s-2.5,0.3-3.7,0.4s-2.5,0.2-3.8,0.3
			s-2.5,0.1-3.8,0.2s-2.5,0.1-3.8,0.1s-2.5,0-3.8,0l-3.7-0.1l-3.7-0.2c-1.2-0.1-2.5-0.1-3.7-0.2l-3.7-0.3c-1.2-0.1-2.5-0.3-3.7-0.4
			l-3.7-0.5c-2.5-0.4-4.9-0.8-7.4-1.2l3.7,0.3l3.7,0.3l3.7,0.2c1.2,0.1,2.5,0.2,3.7,0.2l3.7,0.1c1.2,0.1,2.5,0.1,3.7,0.1l3.7,0.1
			h3.7c1.2,0,2.5-0.1,3.7-0.1s2.5-0.1,3.7-0.2s2.5-0.1,3.7-0.2l3.7-0.3c1.2-0.1,2.4-0.3,3.7-0.4s2.4-0.3,3.7-0.6s2.4-0.4,3.6-0.7
			s2.4-0.5,3.5-0.9l0.3,1.9c-1.1,0-2.2-0.1-3.3-0.1s-2.2-0.1-3.3-0.2s-2.2-0.2-3.3-0.3l-3.3-0.4l-3.3-0.5l-3.3-0.5
			c-1.1-0.2-2.2-0.4-3.3-0.6s-2.2-0.4-3.2-0.7s-2.2-0.5-3.2-0.8l-3.2-0.9c-1.1-0.3-2.1-0.6-3.2-0.9l-1.6-0.5c-0.5-0.2-1-0.4-1.6-0.5
			l-3.1-1.1l-3.1-1.2l-1.5-0.6l-1.5-0.7L1094.1,234.8z"/>
		<path class="st0" d="M1145.3,246.5c0,0-1.4,0.2-4,0.4s-6.2,0.4-10.6,0.2c-1.1-0.1-2.2-0.1-3.4-0.1s-2.4-0.1-3.7-0.2l-3.9-0.4
			l-4-0.5l-4.1-0.6c-1.4-0.2-2.8-0.5-4.2-0.8s-2.8-0.6-4.3-0.9s-2.8-0.7-4.3-1l-2.1-0.6l-2.1-0.5l-2.1-0.5l-1-0.3l-1-0.2l-2.1-0.4
			c-0.7-0.1-1.4-0.3-2-0.4l-4.1-0.5l-4-0.2h-3.8l-3.6,0.2c-1.2,0.1-2.3,0.2-3.3,0.4c-1.9,0.3-3.9,0.7-5.8,1.2
			c-0.8,0.2-1.7,0.4-2.4,0.7s-1.4,0.5-2,0.7c-1.2,0.5-2.1,0.9-2.7,1.2s-0.9,0.5-0.9,0.5s0.3-0.2,0.9-0.6c0.8-0.5,1.7-1,2.6-1.4
			c0.6-0.3,1.2-0.6,1.9-0.9s1.5-0.6,2.3-0.9s1.8-0.6,2.7-0.9s2-0.5,3.1-0.7s2.2-0.4,3.4-0.6s2.4-0.2,3.7-0.4l3.9-0.1l4.1,0.1
			l4.2,0.4c1.4,0.2,2.8,0.4,4.3,0.7l1.1,0.2l1.1,0.2l2.1,0.5l2.2,0.5l2.1,0.5c1.4,0.4,2.8,0.8,4.2,1.1s2.8,0.7,4.2,0.9l4.2,0.8
			l4.1,0.7l4,0.6l3.8,0.5c2.5,0.3,4.8,0.5,7,0.7c4.3,0.3,8,0.5,10.5,0.5h3L1145.3,246.5z"/>
		<path class="st2" d="M1138.2,227.6c-1.1-5.5,0.8-11.2,5-14.9c0,0,3.8-4.9,8.9-2.9s7.7,3.9,9.8,13.3s-4.4,18.9-4.4,18.9
			s3.7,7.8-3.3,11.3c-7.1,3.5-5,1.9-5,1.9S1157.4,239.5,1138.2,227.6z"/>
		<path class="st0" d="M1154.8,240.4c0,0,9.6-19.4-2.3-27.3c-3.8-2.5-13.7,3.7-11.9,13.6C1140.6,226.8,1148.8,227.3,1154.8,240.4z"
			/>
		<path class="st9" d="M1140.6,226.8c0,0,10.4,0.3,13.9,10c0,0,7-17.3-3-24.1c0,0,13,4.4,3.3,27.7
			C1154.8,240.4,1149.7,228.1,1140.6,226.8z"/>
		<path class="st10" d="M1036.2,338.6c0-3.4,0.9-6.7,2.6-9.6c0,0-3,0.5-4.9,4.4c0,0,0.2-7.1,1.7-10.6c0,0-3.7,1.6-4.6,3.7
			c0,0,1.4-6.8,5.5-11.6c0,0-6,2.2-7.2,3.8c0,0,0.8-6.9,6.4-10.7c-3.3-0.5-6.7,0.4-9.3,2.6c0,0,3.6-5.4,7.2-7.2
			c-2.6-1.7-5.7-2.4-8.7-2l0,0c0,0-5.7,12,3.3,32.3C1037.2,353.8,1036.2,338.6,1036.2,338.6z"/>
		<path class="st9" d="M1034.8,337.5c0,0,0.1-6,4-8.4c-1.5,2.8-2.4,5.8-2.6,9L1034.8,337.5z"/>
		<path class="st1" d="M1054.8,363.2c0,0,18.7-2.1,35.1-18.1c0,0-32.9,8.2-58.3-9.2C1031.7,336,1037.8,358,1054.8,363.2z"/>
		<path class="st9" d="M1035.4,308.1c0,0-6.4-0.7-9,9.4l1.8,7.5C1028.1,325.1,1028.7,311.9,1035.4,308.1z"/>
		<path class="st9" d="M1036.5,314.9c0,0-4.6,2.3-7.8,13.4l1.4,1.7C1030,329.9,1031.5,320.6,1036.5,314.9z"/>
		<path class="st9" d="M1033.4,303.4c0,0-6.5-2.7-9.5,5.6l1.6,2.5C1025.5,311.5,1029.4,304.9,1033.4,303.4z"/>
		<path class="st9" d="M1035.4,323.3c0,0-3.9,2.3-3.2,12.6l0,0l1.6,0.8C1033.4,332.2,1033.9,327.6,1035.4,323.3z"/>
		<path class="st11" d="M1036.2,338.6c0-3.4,0.9-6.7,2.6-9.6c0,0-3,0.5-4.9,4.4c0,0,0.2-7.1,1.7-10.6c0,0-3.7,1.6-4.6,3.7
			c0,0,1.4-6.8,5.5-11.6c0,0-6,2.2-7.2,3.8c0,0,0.8-6.9,6.4-10.7c-3.3-0.5-6.7,0.4-9.3,2.6c0,0,3.6-5.4,7.2-7.2
			c-2.6-1.7-5.7-2.4-8.7-2l0,0c0,0-5.7,12,3.3,32.3C1037.2,353.8,1036.2,338.6,1036.2,338.6z"/>
		<path class="st9" d="M1090,345.1c0,0-18.8,16.4-53.5,1.8l-4.8-11C1031.7,336,1055.4,353.6,1090,345.1z"/>
		<path class="st12" d="M1054.8,363.2c0,0,18.7-2.1,35.1-18.1c0,0-32.9,8.2-58.3-9.2C1031.7,336,1037.8,358,1054.8,363.2z"/>
		<path class="st1" d="M1149.5,255.5c-3.5,12.8-12.1,23.6-23.7,30c0,0,8.9-13.9,10.2-28.2C1136,257.2,1145.5,256.9,1149.5,255.5z"/>
		<path class="st9" d="M1142.1,256.7c0,0-0.6,13.4-16.3,28.8c0,0,9.7-15.6,10.2-28.2L1142.1,256.7z"/>
		<path class="st12" d="M1149.5,255.5c-3.5,12.8-12.1,23.6-23.7,30c0,0,8.9-13.9,10.2-28.2C1136,257.2,1145.5,256.9,1149.5,255.5z"
			/>
		<path class="st1" d="M1133.4,257.3c0,0-11.5,28.6-28.7,33.9c6.8-10,10.1-21.9,9.5-34L1133.4,257.3z"/>
		<path class="st9" d="M1104.7,291.2c0,0,17.2-5.7,16.2-34l-6.9-0.5C1114,256.7,1116.8,273.3,1104.7,291.2z"/>
		<path class="st12" d="M1133.4,257.3c0,0-11.5,28.6-28.7,33.9c6.8-10,10.1-21.9,9.5-34L1133.4,257.3z"/>
		<polygon class="st9" points="1107.9,256.1 1100,264.5 1102.9,255.8 		"/>
		<polygon class="st9" points="1096.1,256.1 1089.4,264.5 1091.4,256.1 		"/>
		<path class="st2" d="M1055,362.5c0,0-5.7-0.7-13-8.7s-18.8-33.5-17-61.9c0,0-14.8,12.6-14.6,17S1029.4,364.6,1055,362.5z"/>
		<path class="st3" d="M1023.8,292.3c2.2-2.3,4.4-4.7,6.8-6.9l1.8-1.7l1.8-1.6c1.2-1.1,2.4-2.2,3.7-3.2c2.5-2.1,5-4.1,7.8-5.9
			c1.4-0.9,2.7-1.8,4.1-2.6s2.8-1.7,4.2-2.5c2.8-1.6,5.7-3.1,8.7-4.4l2.2-1l2.3-0.9c1.5-0.6,3-1.2,4.6-1.8c3.1-1.1,6.2-2.1,9.3-2.8
			c3.2-0.8,6.4-1.4,9.6-1.9c6.5-0.9,13.1-1,19.6-0.3c0.8,0.1,1.6,0.2,2.4,0.3l0.6,0.1h0.2h0.2l1.2,0.1l4.8,0.3
			c3.2,0.2,6.4,0.2,9.6,0.2s6.3-0.2,9.5-0.5c3.1-0.3,6.3-0.8,9.3-1.4l1.2-0.3l1.1-0.3c0.3-0.1,0.7-0.2,1.1-0.4l1-0.4
			c1.3-0.6,2.5-1.4,3.4-2.5c0.9-1,1.4-2.3,1.4-3.6c0-0.7,0-1.3-0.2-2c-0.1-0.3-0.2-0.7-0.3-1c-0.1-0.3-0.2-0.6-0.4-0.9l-0.4-0.7
			l0.4-0.7l0.8-1.4c0.3-0.5,0.5-1,0.7-1.5c0.5-1,0.9-2,1.3-3c0.2-0.5,0.3-1,0.5-1.5s0.3-1,0.4-1.6c0.3-1,0.4-2.1,0.6-3.2
			c0.1-1.1,0.2-2.1,0.2-3.2c0-1.1-0.1-2.1-0.3-3.2c-0.2-1-0.5-2.1-0.8-3.1c-0.3-1-0.7-2-1.1-3c-0.5-1-1-1.9-1.6-2.7
			c-0.6-0.8-1.4-1.5-2.2-2.1c-1.7-1.3-3.7-1.9-5.8-1.7c-1.1,0.1-2.1,0.5-3,1c-1,0.5-1.8,1.2-2.6,1.9c-0.8,0.8-1.6,1.6-2.2,2.5
			c-0.3,0.4-0.7,0.9-1,1.4l-0.9,1.5l0.8-1.5c0.3-0.5,0.6-1,0.9-1.5c0.6-1,1.3-1.9,2-2.8c0.8-0.9,1.6-1.7,2.6-2.3
			c1-0.7,2.1-1.1,3.3-1.4c1.2-0.2,2.5-0.2,3.7,0.1c1.2,0.3,2.3,0.7,3.4,1.4c1.1,0.6,2,1.4,2.8,2.3c0.8,0.9,1.5,1.9,2.1,2.9
			c1.3,2,2.1,4.3,2.4,6.7c0.2,1.2,0.3,2.4,0.4,3.6c0,1.2,0,2.4-0.2,3.6c-0.1,1.2-0.3,2.3-0.6,3.5c-0.2,0.6-0.3,1.1-0.5,1.7
			s-0.3,1.1-0.6,1.7c-0.4,1.1-0.9,2.2-1.4,3.2c-0.3,0.5-0.5,1-0.8,1.6l-0.8,1.5v-1.3c0.2,0.4,0.4,0.9,0.6,1.3
			c0.2,0.4,0.3,0.9,0.4,1.3c0.2,0.9,0.3,1.8,0.3,2.8c-0.1,1.9-0.8,3.8-2,5.2c-1.2,1.4-2.7,2.5-4.3,3.2c-0.8,0.4-1.6,0.7-2.4,0.9
			l-1.2,0.4l-1.2,0.3c-3.2,0.7-6.5,1.2-9.7,1.5c-3.2,0.3-6.5,0.5-9.7,0.5s-6.5-0.1-9.7-0.2l-4.8-0.3c-0.4,0-0.8,0-1.2-0.1h-0.4h-0.4
			l-0.6-0.1c-0.8-0.1-1.6-0.2-2.4-0.3c-6.3-0.7-12.6-0.6-18.9,0.3c-3.1,0.4-6.3,1-9.3,1.8c-3.1,0.8-6.1,1.7-9.1,2.8
			c-1.5,0.5-3,1.1-4.4,1.7l-2.2,0.9l-2.2,1c-2.9,1.3-5.7,2.8-8.5,4.3c-1.4,0.8-2.8,1.6-4.1,2.4s-2.7,1.7-4,2.6
			c-0.7,0.4-1.3,0.9-2,1.4s-1.3,0.9-2,1.3s-1.3,0.9-2,1.3l-2,1.3c-1.3,0.9-2.6,1.8-3.9,2.8l-2,1.4l-1.9,1.5
			C1028.8,288.2,1026.3,290.3,1023.8,292.3z"/>
		<path class="st3" d="M1052,368.1c0,0-26.4-5.7-46.5-62.2c0,0-1.1,20.1,10.3,34.7c-4.6,1.3-9.6-0.3-12.6-4.2c0,0,2.2,8.7,14.9,15
			c0,0-15.1,2.3-31.8-12.7c0,0,9.7,28.9,65.3,29.3L1052,368.1z"/>
		<path class="st3" d="M1085.9,229.4c0,0,1.2-0.6,3.5-1.6c3.1-1.3,6.3-2.4,9.5-3.4c4.6-1.3,9.3-2.3,14-2.8c5.5-0.6,11-0.5,16.5,0.3
			c2.8,0.4,5.5,1.1,8.2,1.9l2,0.6c0.7,0.2,1.3,0.5,1.9,0.7l1,0.4l0.9,0.4c0.6,0.3,1.2,0.7,1.8,1.1c2.2,1.4,4.1,3.2,5.8,5.1
			c1.6,1.7,2.9,3.6,4,5.7c0.9,1.7,1.6,3.6,2.1,5.5c0.1,0.4,0.2,0.8,0.2,1.2c0,0.2,0.1,0.4,0.1,0.6c0,0.1,0,0.2,0,0.3v0.3
			c0,0.4,0,0.7,0,1.1s0,0.7,0,1c0,0.6-0.1,1.1-0.2,1.6c-0.1,0.2-0.1,0.5-0.1,0.7l-0.2,0.5l-0.3,0.9h-0.2l0.2-1
			c0-0.1,0.1-0.3,0.1-0.5s0-0.4,0.1-0.6s0-0.5,0.1-0.7c0-0.3,0-0.6,0-0.8c0-0.3,0-0.6,0-0.9s-0.1-0.7-0.2-1v-0.3l-0.1-0.2
			c0-0.2-0.1-0.4-0.1-0.6c-0.1-0.4-0.2-0.8-0.3-1.1c-0.6-1.8-1.4-3.4-2.3-5c-1.2-1.8-2.5-3.6-4-5.1c-1.7-1.8-3.5-3.3-5.5-4.7
			c-0.5-0.4-1-0.6-1.6-1l-0.9-0.4l-0.9-0.4c-0.6-0.2-1.2-0.5-1.8-0.8l-1.9-0.7c-2.6-0.9-5.2-1.6-7.9-2.1c-5.3-0.9-10.7-1.2-16.1-0.7
			c-4.7,0.4-9.4,1.1-14,2.3c-3.3,0.8-6.4,1.8-9.6,3c-2.3,0.9-3.5,1.5-3.5,1.5L1085.9,229.4z"/>
		<path class="st13" d="M1154.8,239.1c0,0,7.8,13.9-8.2,16.5l9.6-3.7l2.3-5.7l-1.4-3.1L1154.8,239.1z"/>
		<path class="st0" d="M1151.1,245c0,0-1,0-2.7,0s-4.1-0.2-7-0.5c-1.4-0.2-3-0.4-4.6-0.6s-3.4-0.6-5.1-1s-3.6-0.8-5.4-1.3
			s-3.7-1.1-5.5-1.7c-0.9-0.3-1.8-0.7-2.7-1c-0.5-0.2-0.9-0.4-1.3-0.5l-1.3-0.6c-1.8-0.7-3.4-1.6-5.1-2.5c-0.8-0.4-1.6-0.9-2.3-1.4
			s-1.5-1-2.2-1.4s-1.3-1-2-1.4s-1.2-1-1.8-1.5c-1-0.9-2-1.8-2.8-2.8c-0.7-0.8-1.3-1.6-1.9-2.4c-0.5-0.7-0.8-1.3-1.1-1.6l-0.4-0.6
			l0.5,0.5c0.3,0.3,0.8,0.8,1.4,1.4s1.3,1.3,2.2,2s1.9,1.5,3.1,2.3c0.6,0.4,1.2,0.8,1.8,1.2s1.3,0.8,2,1.2s1.4,0.8,2.2,1.2
			s1.5,0.8,2.3,1.2c1.6,0.8,3.3,1.5,5,2.2l1.3,0.5l1.3,0.5c0.9,0.4,1.8,0.6,2.7,1c1.8,0.6,3.6,1.2,5.4,1.8s3.6,1.1,5.3,1.5
			s3.4,0.9,5,1.3l4.5,1.1l3.8,0.9l3,0.6L1151.1,245z"/>
	</g>
</g>
</svg>
